M48
; DRILL file {KiCad 9.0.3} date 2025-08-05T23:39:53+0200
; FORMAT={-:-/ absolute / metric / decimal}
; #@! TF.CreationDate,2025-08-05T23:39:53+02:00
; #@! TF.GenerationSoftware,Kicad,Pcbnew,9.0.3
; #@! TF.FileFunction,Plated,1,2,PTH
FMAT,2
METRIC
; #@! TA.AperFunction,Plated,PTH,ViaDrill
T1C0.300
; #@! TA.AperFunction,Plated,PTH,ComponentDrill
T2C0.800
; #@! TA.AperFunction,Plated,PTH,ComponentDrill
T3C1.100
; #@! TA.AperFunction,Plated,PTH,ComponentDrill
T4C1.300
%
G90
G05
T1
X111.125Y-75.565
X111.125Y-78.74
X119.415Y-76.2
X120.65Y-76.2
X151.13Y-76.835
X151.765Y-74.93
X153.035Y-77.47
X154.27Y-77.47
X168.91Y-66.802
X169.164Y-62.484
X183.48Y-60.96
X184.912Y-60.706
X186.09Y-76.2
X187.96Y-76.2
X188.595Y-78.105
X190.607Y-77.998
T2
X46.99Y-83.82
X46.99Y-91.44
X52.07Y-83.82
X52.07Y-91.44
X57.15Y-83.82
X57.15Y-91.44
X62.23Y-83.82
X62.23Y-91.44
X67.31Y-83.82
X67.31Y-91.44
X72.39Y-83.82
X72.39Y-91.44
X78.74Y-83.82
X78.74Y-91.44
X83.82Y-83.82
X83.82Y-91.44
X85.09Y-64.77
X85.09Y-72.39
X87.63Y-64.77
X87.63Y-72.39
X88.9Y-83.82
X88.9Y-91.44
X90.17Y-64.77
X90.17Y-72.39
X92.71Y-64.77
X92.71Y-72.39
X93.98Y-83.82
X93.98Y-91.44
X95.25Y-64.77
X95.25Y-72.39
X97.79Y-64.77
X97.79Y-72.39
X99.06Y-83.82
X99.06Y-91.44
X100.33Y-64.77
X100.33Y-72.39
X102.87Y-64.77
X102.87Y-72.39
X104.14Y-83.82
X104.14Y-91.44
X110.49Y-83.82
X110.49Y-91.44
X115.57Y-83.82
X115.57Y-91.44
X118.11Y-64.77
X118.11Y-72.39
X120.65Y-64.77
X120.65Y-72.39
X120.65Y-83.82
X120.65Y-91.44
X123.19Y-64.77
X123.19Y-72.39
X125.73Y-64.77
X125.73Y-72.39
X125.73Y-83.82
X125.73Y-91.44
X128.27Y-64.77
X128.27Y-72.39
X130.81Y-64.77
X130.81Y-72.39
X130.81Y-83.82
X130.81Y-91.44
X133.35Y-64.77
X133.35Y-72.39
X135.89Y-64.77
X135.89Y-72.39
X135.89Y-83.82
X135.89Y-91.44
X142.24Y-83.82
X142.24Y-91.44
X147.32Y-83.82
X147.32Y-91.44
X151.13Y-64.77
X151.13Y-72.39
X152.4Y-83.82
X152.4Y-91.44
X153.67Y-64.77
X153.67Y-72.39
X156.21Y-64.77
X156.21Y-72.39
X157.48Y-83.82
X157.48Y-91.44
X158.75Y-64.77
X158.75Y-72.39
X161.29Y-64.77
X161.29Y-72.39
X162.56Y-83.82
X162.56Y-91.44
X163.83Y-64.77
X163.83Y-72.39
X166.37Y-64.77
X166.37Y-72.39
X167.64Y-83.82
X167.64Y-91.44
X168.91Y-64.77
X168.91Y-72.39
X173.99Y-83.82
X173.99Y-91.44
X179.07Y-83.82
X179.07Y-91.44
X184.15Y-64.77
X184.15Y-72.39
X184.15Y-83.82
X184.15Y-91.44
X186.69Y-64.77
X186.69Y-72.39
X189.23Y-64.77
X189.23Y-72.39
X189.23Y-83.82
X189.23Y-91.44
X191.77Y-64.77
X191.77Y-72.39
X194.31Y-64.77
X194.31Y-72.39
X194.31Y-83.82
X194.31Y-91.44
X196.85Y-64.77
X196.85Y-72.39
X199.39Y-64.77
X199.39Y-72.39
X199.39Y-83.82
X199.39Y-91.44
X201.93Y-64.77
X201.93Y-72.39
X205.74Y-83.82
X205.74Y-91.44
X210.82Y-83.82
X210.82Y-91.44
T3
X223.52Y-69.85
X223.52Y-85.09
X226.06Y-69.85
X226.06Y-85.09
X228.6Y-69.85
X228.6Y-85.09
X231.14Y-69.85
X231.14Y-85.09
X233.68Y-69.85
X233.68Y-85.09
X236.22Y-69.85
X236.22Y-85.09
X238.76Y-69.85
X238.76Y-85.09
X241.3Y-69.85
X241.3Y-85.09
X243.84Y-69.85
X243.84Y-85.09
X246.38Y-69.85
X246.38Y-85.09
X248.92Y-69.85
X248.92Y-85.09
X251.46Y-69.85
X251.46Y-85.09
T4
X37.292Y-76.195
X37.292Y-81.275
X46.99Y-99.06
X52.07Y-99.06
X52.324Y-64.008
X57.15Y-99.06
X62.23Y-99.06
X67.31Y-99.06
X72.39Y-99.06
X74.824Y-64.008
X78.74Y-99.06
X83.82Y-99.06
X88.9Y-99.06
X93.98Y-99.06
X99.06Y-99.06
X104.14Y-99.06
X110.49Y-99.06
X115.57Y-99.06
X120.65Y-99.06
X125.73Y-99.06
X130.81Y-99.06
X135.89Y-99.06
X142.24Y-99.06
X147.32Y-99.06
X152.4Y-99.06
X157.48Y-99.06
X162.56Y-99.06
X167.64Y-99.06
X173.99Y-99.06
X179.07Y-99.06
X184.15Y-99.06
X189.23Y-99.06
X194.31Y-99.06
X199.39Y-99.06
X205.735Y-99.233
X210.815Y-99.233
M30
