%TF.GenerationSoftware,KiCad,Pcbnew,9.0.3*%
%TF.CreationDate,2025-08-12T15:30:17+02:00*%
%TF.ProjectId,Hauptwerk_Project,48617570-7477-4657-926b-5f50726f6a65,1.0.0*%
%TF.SameCoordinates,Original*%
%TF.FileFunction,Soldermask,Bot*%
%TF.FilePolarity,Negative*%
%FSLAX46Y46*%
G04 Gerber Fmt 4.6, Leading zero omitted, Abs format (unit mm)*
G04 Created by KiCad (PCBNEW 9.0.3) date 2025-08-12 15:30:17*
%MOMM*%
%LPD*%
G01*
G04 APERTURE LIST*
G04 Aperture macros list*
%AMRoundRect*
0 Rectangle with rounded corners*
0 $1 Rounding radius*
0 $2 $3 $4 $5 $6 $7 $8 $9 X,Y pos of 4 corners*
0 Add a 4 corners polygon primitive as box body*
4,1,4,$2,$3,$4,$5,$6,$7,$8,$9,$2,$3,0*
0 Add four circle primitives for the rounded corners*
1,1,$1+$1,$2,$3*
1,1,$1+$1,$4,$5*
1,1,$1+$1,$6,$7*
1,1,$1+$1,$8,$9*
0 Add four rect primitives between the rounded corners*
20,1,$1+$1,$2,$3,$4,$5,0*
20,1,$1+$1,$4,$5,$6,$7,0*
20,1,$1+$1,$6,$7,$8,$9,0*
20,1,$1+$1,$8,$9,$2,$3,0*%
G04 Aperture macros list end*
%ADD10RoundRect,0.250000X-1.050000X-1.050000X1.050000X-1.050000X1.050000X1.050000X-1.050000X1.050000X0*%
%ADD11C,2.600000*%
%ADD12C,1.600000*%
%ADD13C,3.200000*%
%ADD14RoundRect,0.250000X0.550000X-0.550000X0.550000X0.550000X-0.550000X0.550000X-0.550000X-0.550000X0*%
%ADD15RoundRect,0.250000X-1.050000X1.050000X-1.050000X-1.050000X1.050000X-1.050000X1.050000X1.050000X0*%
%ADD16R,1.600000X1.600000*%
%ADD17C,2.700000*%
%ADD18C,3.000000*%
G04 APERTURE END LIST*
D10*
%TO.C,J4*%
X110490000Y-99060000D03*
D11*
X115570000Y-99060000D03*
X120650000Y-99060000D03*
X125730000Y-99060000D03*
X130810000Y-99060000D03*
X135890000Y-99060000D03*
%TD*%
D12*
%TO.C,R26*%
X179070000Y-91440000D03*
X179070000Y-83820000D03*
%TD*%
%TO.C,R14*%
X115570000Y-91440000D03*
X115570000Y-83820000D03*
%TD*%
%TO.C,R29*%
X194310000Y-91440000D03*
X194310000Y-83820000D03*
%TD*%
D10*
%TO.C,J6*%
X173990000Y-99060000D03*
D11*
X179070000Y-99060000D03*
X184150000Y-99060000D03*
X189230000Y-99060000D03*
X194310000Y-99060000D03*
X199390000Y-99060000D03*
%TD*%
D12*
%TO.C,R30*%
X199390000Y-91440000D03*
X199390000Y-83820000D03*
%TD*%
D10*
%TO.C,J7*%
X205735000Y-99060000D03*
D11*
X210815000Y-99060000D03*
%TD*%
D12*
%TO.C,R12*%
X104140000Y-91440000D03*
X104140000Y-83820000D03*
%TD*%
%TO.C,R8*%
X83820000Y-91440000D03*
X83820000Y-83820000D03*
%TD*%
D13*
%TO.C,REF\u002A\u002A*%
X259080000Y-100330000D03*
%TD*%
D12*
%TO.C,R13*%
X110490000Y-91440000D03*
X110490000Y-83820000D03*
%TD*%
%TO.C,R10*%
X93980000Y-91440000D03*
X93980000Y-83820000D03*
%TD*%
%TO.C,R4*%
X62230000Y-91440000D03*
X62230000Y-83820000D03*
%TD*%
%TO.C,R18*%
X135890000Y-91440000D03*
X135890000Y-83820000D03*
%TD*%
%TO.C,R9*%
X88900000Y-91440000D03*
X88900000Y-83820000D03*
%TD*%
%TO.C,R27*%
X184150000Y-91440000D03*
X184150000Y-83820000D03*
%TD*%
%TO.C,R5*%
X67310000Y-91440000D03*
X67310000Y-83820000D03*
%TD*%
%TO.C,R3*%
X57150000Y-91440000D03*
X57150000Y-83820000D03*
%TD*%
%TO.C,R28*%
X189230000Y-91440000D03*
X189230000Y-83820000D03*
%TD*%
D14*
%TO.C,U4*%
X184150000Y-72390000D03*
D12*
X186690000Y-72390000D03*
X189230000Y-72390000D03*
X191770000Y-72390000D03*
X194310000Y-72390000D03*
X196850000Y-72390000D03*
X199390000Y-72390000D03*
X201930000Y-72390000D03*
X201930000Y-64770000D03*
X199390000Y-64770000D03*
X196850000Y-64770000D03*
X194310000Y-64770000D03*
X191770000Y-64770000D03*
X189230000Y-64770000D03*
X186690000Y-64770000D03*
X184150000Y-64770000D03*
%TD*%
D10*
%TO.C,J3*%
X78740000Y-99060000D03*
D11*
X83820000Y-99060000D03*
X88900000Y-99060000D03*
X93980000Y-99060000D03*
X99060000Y-99060000D03*
X104140000Y-99060000D03*
%TD*%
D13*
%TO.C,REF\u002A\u002A*%
X35560000Y-60960000D03*
%TD*%
D12*
%TO.C,R21*%
X152400000Y-91440000D03*
X152400000Y-83820000D03*
%TD*%
%TO.C,R24*%
X167640000Y-91440000D03*
X167640000Y-83820000D03*
%TD*%
%TO.C,R11*%
X99060000Y-91440000D03*
X99060000Y-83820000D03*
%TD*%
D13*
%TO.C,REF\u002A\u002A*%
X259080000Y-60960000D03*
%TD*%
D12*
%TO.C,R19*%
X142240000Y-91440000D03*
X142240000Y-83820000D03*
%TD*%
%TO.C,R17*%
X130810000Y-91440000D03*
X130810000Y-83820000D03*
%TD*%
%TO.C,R25*%
X173990000Y-91440000D03*
X173990000Y-83820000D03*
%TD*%
%TO.C,R16*%
X125730000Y-91440000D03*
X125730000Y-83820000D03*
%TD*%
%TO.C,R7*%
X78740000Y-91440000D03*
X78740000Y-83820000D03*
%TD*%
%TO.C,R32*%
X210820000Y-91440000D03*
X210820000Y-83820000D03*
%TD*%
%TO.C,R15*%
X120650000Y-91440000D03*
X120650000Y-83820000D03*
%TD*%
%TO.C,R2*%
X52070000Y-91440000D03*
X52070000Y-83820000D03*
%TD*%
D15*
%TO.C,J1*%
X37292500Y-76195000D03*
D11*
X37292500Y-81275000D03*
%TD*%
D16*
%TO.C,U5*%
X251460000Y-69850000D03*
D12*
X248920000Y-69850000D03*
X246380000Y-69850000D03*
X243840000Y-69850000D03*
X241300000Y-69850000D03*
X238760000Y-69850000D03*
X236220000Y-69850000D03*
X233680000Y-69850000D03*
X231140000Y-69850000D03*
X228600000Y-69850000D03*
X226060000Y-69850000D03*
X223520000Y-69850000D03*
X223520000Y-85090000D03*
X226060000Y-85090000D03*
X228600000Y-85090000D03*
X231140000Y-85090000D03*
X233680000Y-85090000D03*
X236220000Y-85090000D03*
X238760000Y-85090000D03*
X241300000Y-85090000D03*
X243840000Y-85090000D03*
X246380000Y-85090000D03*
X248920000Y-85090000D03*
X251460000Y-85090000D03*
%TD*%
%TO.C,R22*%
X157480000Y-91440000D03*
X157480000Y-83820000D03*
%TD*%
D10*
%TO.C,J2*%
X46990000Y-99060000D03*
D11*
X52070000Y-99060000D03*
X57150000Y-99060000D03*
X62230000Y-99060000D03*
X67310000Y-99060000D03*
X72390000Y-99060000D03*
%TD*%
D17*
%TO.C,F1*%
X63574000Y-64008000D03*
D18*
X52324000Y-64008000D03*
X74824000Y-64008000D03*
%TD*%
D10*
%TO.C,J5*%
X142240000Y-99060000D03*
D11*
X147320000Y-99060000D03*
X152400000Y-99060000D03*
X157480000Y-99060000D03*
X162560000Y-99060000D03*
X167640000Y-99060000D03*
%TD*%
D12*
%TO.C,R23*%
X162560000Y-91440000D03*
X162560000Y-83820000D03*
%TD*%
%TO.C,R20*%
X147320000Y-91440000D03*
X147320000Y-83820000D03*
%TD*%
D14*
%TO.C,U1*%
X85090000Y-72390000D03*
D12*
X87630000Y-72390000D03*
X90170000Y-72390000D03*
X92710000Y-72390000D03*
X95250000Y-72390000D03*
X97790000Y-72390000D03*
X100330000Y-72390000D03*
X102870000Y-72390000D03*
X102870000Y-64770000D03*
X100330000Y-64770000D03*
X97790000Y-64770000D03*
X95250000Y-64770000D03*
X92710000Y-64770000D03*
X90170000Y-64770000D03*
X87630000Y-64770000D03*
X85090000Y-64770000D03*
%TD*%
D14*
%TO.C,U3*%
X151130000Y-72390000D03*
D12*
X153670000Y-72390000D03*
X156210000Y-72390000D03*
X158750000Y-72390000D03*
X161290000Y-72390000D03*
X163830000Y-72390000D03*
X166370000Y-72390000D03*
X168910000Y-72390000D03*
X168910000Y-64770000D03*
X166370000Y-64770000D03*
X163830000Y-64770000D03*
X161290000Y-64770000D03*
X158750000Y-64770000D03*
X156210000Y-64770000D03*
X153670000Y-64770000D03*
X151130000Y-64770000D03*
%TD*%
D13*
%TO.C,REF\u002A\u002A*%
X35560000Y-100330000D03*
%TD*%
D12*
%TO.C,R6*%
X72390000Y-91440000D03*
X72390000Y-83820000D03*
%TD*%
%TO.C,R31*%
X205740000Y-91440000D03*
X205740000Y-83820000D03*
%TD*%
%TO.C,R1*%
X46990000Y-91440000D03*
X46990000Y-83820000D03*
%TD*%
D14*
%TO.C,U2*%
X118110000Y-72390000D03*
D12*
X120650000Y-72390000D03*
X123190000Y-72390000D03*
X125730000Y-72390000D03*
X128270000Y-72390000D03*
X130810000Y-72390000D03*
X133350000Y-72390000D03*
X135890000Y-72390000D03*
X135890000Y-64770000D03*
X133350000Y-64770000D03*
X130810000Y-64770000D03*
X128270000Y-64770000D03*
X125730000Y-64770000D03*
X123190000Y-64770000D03*
X120650000Y-64770000D03*
X118110000Y-64770000D03*
%TD*%
M02*
