%TF.GenerationSoftware,KiCad,Pcbnew,9.0.3*%
%TF.CreationDate,2025-09-10T19:37:44+02:00*%
%TF.ProjectId,expressionAndButtonsPCB,65787072-6573-4736-996f-6e416e644275,1.0.0*%
%TF.SameCoordinates,Original*%
%TF.FileFunction,Copper,L2,Bot*%
%TF.FilePolarity,Positive*%
%FSLAX46Y46*%
G04 Gerber Fmt 4.6, Leading zero omitted, Abs format (unit mm)*
G04 Created by KiCad (PCBNEW 9.0.3) date 2025-09-10 19:37:44*
%MOMM*%
%LPD*%
G01*
G04 APERTURE LIST*
G04 Aperture macros list*
%AMRoundRect*
0 Rectangle with rounded corners*
0 $1 Rounding radius*
0 $2 $3 $4 $5 $6 $7 $8 $9 X,Y pos of 4 corners*
0 Add a 4 corners polygon primitive as box body*
4,1,4,$2,$3,$4,$5,$6,$7,$8,$9,$2,$3,0*
0 Add four circle primitives for the rounded corners*
1,1,$1+$1,$2,$3*
1,1,$1+$1,$4,$5*
1,1,$1+$1,$6,$7*
1,1,$1+$1,$8,$9*
0 Add four rect primitives between the rounded corners*
20,1,$1+$1,$2,$3,$4,$5,0*
20,1,$1+$1,$4,$5,$6,$7,0*
20,1,$1+$1,$6,$7,$8,$9,0*
20,1,$1+$1,$8,$9,$2,$3,0*%
G04 Aperture macros list end*
%TA.AperFunction,ComponentPad*%
%ADD10C,3.000000*%
%TD*%
%TA.AperFunction,ComponentPad*%
%ADD11C,1.600000*%
%TD*%
%TA.AperFunction,ComponentPad*%
%ADD12RoundRect,0.250000X0.550000X-0.550000X0.550000X0.550000X-0.550000X0.550000X-0.550000X-0.550000X0*%
%TD*%
%TA.AperFunction,ComponentPad*%
%ADD13RoundRect,0.249999X0.850001X-0.850001X0.850001X0.850001X-0.850001X0.850001X-0.850001X-0.850001X0*%
%TD*%
%TA.AperFunction,ComponentPad*%
%ADD14C,2.200000*%
%TD*%
%TA.AperFunction,ComponentPad*%
%ADD15RoundRect,0.249999X-0.850001X-0.850001X0.850001X-0.850001X0.850001X0.850001X-0.850001X0.850001X0*%
%TD*%
%TA.AperFunction,ComponentPad*%
%ADD16R,1.600000X1.600000*%
%TD*%
%TA.AperFunction,ComponentPad*%
%ADD17RoundRect,0.249999X-0.850001X0.850001X-0.850001X-0.850001X0.850001X-0.850001X0.850001X0.850001X0*%
%TD*%
%TA.AperFunction,ViaPad*%
%ADD18C,0.600000*%
%TD*%
%TA.AperFunction,Conductor*%
%ADD19C,0.200000*%
%TD*%
G04 APERTURE END LIST*
D10*
%TO.P,F1,1*%
%TO.N,+5V*%
X56642000Y-41148000D03*
%TO.P,F1,2*%
%TO.N,Net-(Cresc1-VCC)*%
X79142000Y-41148000D03*
%TD*%
D11*
%TO.P,R10,1*%
%TO.N,Net-(IN2-D1)*%
X63754000Y-103632000D03*
%TO.P,R10,2*%
%TO.N,Net-(Cresc1-VCC)*%
X71374000Y-103632000D03*
%TD*%
%TO.P,R24,1*%
%TO.N,Net-(Cresc1-QH)*%
X194310000Y-110998000D03*
%TO.P,R24,2*%
%TO.N,Net-(J3-Pin_8)*%
X201930000Y-110998000D03*
%TD*%
D12*
%TO.P,Cresc2,1,QB*%
%TO.N,Net-(Cresc2-QB)*%
X133858000Y-95758000D03*
D11*
%TO.P,Cresc2,2,QC*%
%TO.N,Net-(Cresc2-QC)*%
X136398000Y-95758000D03*
%TO.P,Cresc2,3,QD*%
%TO.N,Net-(Cresc2-QD)*%
X138938000Y-95758000D03*
%TO.P,Cresc2,4,QE*%
%TO.N,Net-(Cresc2-QE)*%
X141478000Y-95758000D03*
%TO.P,Cresc2,5,QF*%
%TO.N,Net-(Cresc2-QF)*%
X144018000Y-95758000D03*
%TO.P,Cresc2,6,QG*%
%TO.N,Net-(Cresc2-QG)*%
X146558000Y-95758000D03*
%TO.P,Cresc2,7,QH*%
%TO.N,Net-(Cresc2-QH)*%
X149098000Y-95758000D03*
%TO.P,Cresc2,8,GND*%
%TO.N,GND*%
X151638000Y-95758000D03*
%TO.P,Cresc2,9,QH'*%
%TO.N,unconnected-(Cresc2-QH'-Pad9)*%
X151638000Y-88138000D03*
%TO.P,Cresc2,10,~{SRCLR}*%
%TO.N,Net-(Cresc1-VCC)*%
X149098000Y-88138000D03*
%TO.P,Cresc2,11,SRCLK*%
%TO.N,Net-(Cresc1-SRCLK)*%
X146558000Y-88138000D03*
%TO.P,Cresc2,12,RCLK*%
%TO.N,Net-(Cresc1-RCLK)*%
X144018000Y-88138000D03*
%TO.P,Cresc2,13,~{OE}*%
%TO.N,GND*%
X141478000Y-88138000D03*
%TO.P,Cresc2,14,SER*%
%TO.N,Net-(Cresc1-QH')*%
X138938000Y-88138000D03*
%TO.P,Cresc2,15,QA*%
%TO.N,Net-(Cresc2-QA)*%
X136398000Y-88138000D03*
%TO.P,Cresc2,16,VCC*%
%TO.N,Net-(Cresc1-VCC)*%
X133858000Y-88138000D03*
%TD*%
D13*
%TO.P,J7,1,Pin_1*%
%TO.N,Net-(J7-Pin_1)*%
X214175000Y-99525000D03*
D14*
%TO.P,J7,2,Pin_2*%
%TO.N,Net-(J7-Pin_2)*%
X214175000Y-96985000D03*
%TO.P,J7,3,Pin_3*%
%TO.N,Net-(J7-Pin_3)*%
X214175000Y-94445000D03*
%TO.P,J7,4,Pin_4*%
%TO.N,Net-(J7-Pin_4)*%
X214175000Y-91905000D03*
%TO.P,J7,5,Pin_5*%
%TO.N,Net-(J7-Pin_5)*%
X214175000Y-89365000D03*
%TO.P,J7,6,Pin_6*%
%TO.N,Net-(J7-Pin_6)*%
X214175000Y-86825000D03*
%TD*%
D13*
%TO.P,J3,1,Pin_1*%
%TO.N,Net-(J3-Pin_1)*%
X214175000Y-126510000D03*
D14*
%TO.P,J3,2,Pin_2*%
%TO.N,Net-(J3-Pin_2)*%
X214175000Y-123970000D03*
%TO.P,J3,3,Pin_3*%
%TO.N,Net-(J3-Pin_3)*%
X214175000Y-121430000D03*
%TO.P,J3,4,Pin_4*%
%TO.N,Net-(J3-Pin_4)*%
X214175000Y-118890000D03*
%TO.P,J3,5,Pin_5*%
%TO.N,Net-(J3-Pin_5)*%
X214175000Y-116350000D03*
%TO.P,J3,6,Pin_6*%
%TO.N,Net-(J3-Pin_6)*%
X214175000Y-113810000D03*
%TO.P,J3,7,Pin_7*%
%TO.N,Net-(J3-Pin_7)*%
X214175000Y-111270000D03*
%TO.P,J3,8,Pin_8*%
%TO.N,Net-(J3-Pin_8)*%
X214175000Y-108730000D03*
%TO.P,J3,9,Pin_9*%
%TO.N,Net-(J3-Pin_9)*%
X214175000Y-106190000D03*
%TO.P,J3,10,Pin_10*%
%TO.N,Net-(J3-Pin_10)*%
X214175000Y-103650000D03*
%TD*%
D11*
%TO.P,R15,1*%
%TO.N,Net-(IN2-D6)*%
X63754000Y-128524000D03*
%TO.P,R15,2*%
%TO.N,Net-(Cresc1-VCC)*%
X71374000Y-128524000D03*
%TD*%
%TO.P,R44,1*%
%TO.N,Net-(E2-QD)*%
X155820000Y-150865000D03*
%TO.P,R44,2*%
%TO.N,Net-(J5-Pin_4)*%
X155820000Y-158485000D03*
%TD*%
%TO.P,R34,1*%
%TO.N,Net-(E1-QB)*%
X89055000Y-151265000D03*
%TO.P,R34,2*%
%TO.N,Net-(J4-Pin_2)*%
X89055000Y-158885000D03*
%TD*%
D15*
%TO.P,J5,1,Pin_1*%
%TO.N,Net-(J5-Pin_1)*%
X148962000Y-168899000D03*
D14*
%TO.P,J5,2,Pin_2*%
%TO.N,Net-(J5-Pin_2)*%
X151502000Y-168899000D03*
%TO.P,J5,3,Pin_3*%
%TO.N,Net-(J5-Pin_3)*%
X154042000Y-168899000D03*
%TO.P,J5,4,Pin_4*%
%TO.N,Net-(J5-Pin_4)*%
X156582000Y-168899000D03*
%TO.P,J5,5,Pin_5*%
%TO.N,Net-(J5-Pin_5)*%
X159122000Y-168899000D03*
%TO.P,J5,6,Pin_6*%
%TO.N,Net-(J5-Pin_6)*%
X161662000Y-168899000D03*
%TO.P,J5,7,Pin_7*%
%TO.N,Net-(J5-Pin_7)*%
X164202000Y-168899000D03*
%TO.P,J5,8,Pin_8*%
%TO.N,Net-(J5-Pin_8)*%
X166742000Y-168899000D03*
%TO.P,J5,9,Pin_9*%
%TO.N,GND*%
X169282000Y-168899000D03*
%TD*%
D11*
%TO.P,R1,1*%
%TO.N,Net-(IN1-D0)*%
X64008000Y-58420000D03*
%TO.P,R1,2*%
%TO.N,Net-(Cresc1-VCC)*%
X71628000Y-58420000D03*
%TD*%
D15*
%TO.P,J4,1,Pin_1*%
%TO.N,Net-(J4-Pin_1)*%
X92611000Y-170061000D03*
D14*
%TO.P,J4,2,Pin_2*%
%TO.N,Net-(J4-Pin_2)*%
X95151000Y-170061000D03*
%TO.P,J4,3,Pin_3*%
%TO.N,Net-(J4-Pin_3)*%
X97691000Y-170061000D03*
%TO.P,J4,4,Pin_4*%
%TO.N,Net-(J4-Pin_4)*%
X100231000Y-170061000D03*
%TO.P,J4,5,Pin_5*%
%TO.N,Net-(J4-Pin_5)*%
X102771000Y-170061000D03*
%TO.P,J4,6,Pin_6*%
%TO.N,Net-(J4-Pin_6)*%
X105311000Y-170061000D03*
%TO.P,J4,7,Pin_7*%
%TO.N,Net-(J4-Pin_7)*%
X107851000Y-170061000D03*
%TO.P,J4,8,Pin_8*%
%TO.N,Net-(J4-Pin_8)*%
X110391000Y-170061000D03*
%TO.P,J4,9,Pin_9*%
%TO.N,GND*%
X112931000Y-170061000D03*
%TD*%
D11*
%TO.P,R3,1*%
%TO.N,Net-(IN1-D2)*%
X63754000Y-68594000D03*
%TO.P,R3,2*%
%TO.N,Net-(Cresc1-VCC)*%
X71374000Y-68594000D03*
%TD*%
D12*
%TO.P,Cresc1,1,QB*%
%TO.N,Net-(Cresc1-QB)*%
X103124000Y-96007000D03*
D11*
%TO.P,Cresc1,2,QC*%
%TO.N,Net-(Cresc1-QC)*%
X105664000Y-96007000D03*
%TO.P,Cresc1,3,QD*%
%TO.N,Net-(Cresc1-QD)*%
X108204000Y-96007000D03*
%TO.P,Cresc1,4,QE*%
%TO.N,Net-(Cresc1-QE)*%
X110744000Y-96007000D03*
%TO.P,Cresc1,5,QF*%
%TO.N,Net-(Cresc1-QF)*%
X113284000Y-96007000D03*
%TO.P,Cresc1,6,QG*%
%TO.N,Net-(Cresc1-QG)*%
X115824000Y-96007000D03*
%TO.P,Cresc1,7,QH*%
%TO.N,Net-(Cresc1-QH)*%
X118364000Y-96007000D03*
%TO.P,Cresc1,8,GND*%
%TO.N,GND*%
X120904000Y-96007000D03*
%TO.P,Cresc1,9,QH'*%
%TO.N,Net-(Cresc1-QH')*%
X120904000Y-88387000D03*
%TO.P,Cresc1,10,~{SRCLR}*%
%TO.N,Net-(Cresc1-VCC)*%
X118364000Y-88387000D03*
%TO.P,Cresc1,11,SRCLK*%
%TO.N,Net-(Cresc1-SRCLK)*%
X115824000Y-88387000D03*
%TO.P,Cresc1,12,RCLK*%
%TO.N,Net-(Cresc1-RCLK)*%
X113284000Y-88387000D03*
%TO.P,Cresc1,13,~{OE}*%
%TO.N,GND*%
X110744000Y-88387000D03*
%TO.P,Cresc1,14,SER*%
%TO.N,Net-(Cresc1-SER)*%
X108204000Y-88387000D03*
%TO.P,Cresc1,15,QA*%
%TO.N,Net-(Cresc1-QA)*%
X105664000Y-88387000D03*
%TO.P,Cresc1,16,VCC*%
%TO.N,Net-(Cresc1-VCC)*%
X103124000Y-88387000D03*
%TD*%
%TO.P,R40,1*%
%TO.N,Net-(E1-QH)*%
X119535000Y-151265000D03*
%TO.P,R40,2*%
%TO.N,Net-(J4-Pin_8)*%
X119535000Y-158885000D03*
%TD*%
%TO.P,R19,1*%
%TO.N,Net-(Cresc1-QC)*%
X194310000Y-135890000D03*
%TO.P,R19,2*%
%TO.N,Net-(J3-Pin_3)*%
X201930000Y-135890000D03*
%TD*%
%TO.P,R48,1*%
%TO.N,Net-(E2-QH)*%
X176140000Y-151119000D03*
%TO.P,R48,2*%
%TO.N,Net-(J5-Pin_8)*%
X176140000Y-158739000D03*
%TD*%
D16*
%TO.P,U2,1,TX*%
%TO.N,unconnected-(U2-TX-Pad1)*%
X208788000Y-42672000D03*
D11*
%TO.P,U2,2,RX*%
%TO.N,unconnected-(U2-RX-Pad2)*%
X206248000Y-42672000D03*
%TO.P,U2,3,GND*%
%TO.N,unconnected-(U2-GND-Pad3)*%
X203708000Y-42672000D03*
%TO.P,U2,4,GND*%
%TO.N,unconnected-(U2-GND-Pad4)*%
X201168000Y-42672000D03*
%TO.P,U2,5,SDA*%
%TO.N,Net-(E1-RCLK)*%
X198628000Y-42672000D03*
%TO.P,U2,6,SCL*%
%TO.N,Net-(E1-SER)*%
X196088000Y-42672000D03*
%TO.P,U2,7,D4*%
%TO.N,Net-(E1-SRCLK)*%
X193548000Y-42672000D03*
%TO.P,U2,8,C6*%
%TO.N,Net-(E2-RCLK)*%
X191008000Y-42672000D03*
%TO.P,U2,9,D7*%
%TO.N,Net-(E2-SER)*%
X188468000Y-42672000D03*
%TO.P,U2,10,E6*%
%TO.N,Net-(E2-SRCLK)*%
X185928000Y-42672000D03*
%TO.P,U2,11,B4*%
%TO.N,Net-(IN1-CP)*%
X183388000Y-42672000D03*
%TO.P,U2,12,B5*%
%TO.N,Net-(IN1-~{PL})*%
X180848000Y-42672000D03*
%TO.P,U2,13,B6*%
%TO.N,Net-(IN2-Q7)*%
X180848000Y-57912000D03*
%TO.P,U2,14,B2*%
%TO.N,Net-(Cresc1-RCLK)*%
X183388000Y-57912000D03*
%TO.P,U2,15,B3*%
%TO.N,Net-(Cresc1-SRCLK)*%
X185928000Y-57912000D03*
%TO.P,U2,16,B1*%
%TO.N,Net-(Cresc1-SER)*%
X188468000Y-57912000D03*
%TO.P,U2,17,F7*%
%TO.N,Net-(J6-Pin_1)*%
X191008000Y-57912000D03*
%TO.P,U2,18,F6*%
%TO.N,Net-(J6-Pin_2)*%
X193548000Y-57912000D03*
%TO.P,U2,19,F5*%
%TO.N,Net-(J6-Pin_3)*%
X196088000Y-57912000D03*
%TO.P,U2,20,F4*%
%TO.N,unconnected-(U2-F4-Pad20)*%
X198628000Y-57912000D03*
%TO.P,U2,21,VCC*%
%TO.N,unconnected-(U2-VCC-Pad21)*%
X201168000Y-57912000D03*
%TO.P,U2,22,RST*%
%TO.N,unconnected-(U2-RST-Pad22)*%
X203708000Y-57912000D03*
%TO.P,U2,23,GND*%
%TO.N,GND*%
X206248000Y-57912000D03*
%TO.P,U2,24,RAW*%
%TO.N,unconnected-(U2-RAW-Pad24)*%
X208788000Y-57912000D03*
%TD*%
%TO.P,R25,1*%
%TO.N,Net-(Cresc2-QA)*%
X194310000Y-105918000D03*
%TO.P,R25,2*%
%TO.N,Net-(J3-Pin_9)*%
X201930000Y-105918000D03*
%TD*%
%TO.P,R21,1*%
%TO.N,Net-(Cresc1-QE)*%
X194310000Y-125984000D03*
%TO.P,R21,2*%
%TO.N,Net-(J3-Pin_5)*%
X201930000Y-125984000D03*
%TD*%
%TO.P,R35,1*%
%TO.N,Net-(E1-QC)*%
X94135000Y-151265000D03*
%TO.P,R35,2*%
%TO.N,Net-(J4-Pin_3)*%
X94135000Y-158885000D03*
%TD*%
%TO.P,R39,1*%
%TO.N,Net-(E1-QG)*%
X114455000Y-151265000D03*
%TO.P,R39,2*%
%TO.N,Net-(J4-Pin_7)*%
X114455000Y-158885000D03*
%TD*%
%TO.P,R23,1*%
%TO.N,Net-(Cresc1-QG)*%
X194310000Y-116078000D03*
%TO.P,R23,2*%
%TO.N,Net-(J3-Pin_7)*%
X201930000Y-116078000D03*
%TD*%
%TO.P,R32,1*%
%TO.N,Net-(Cresc2-QH)*%
X194310000Y-70866000D03*
%TO.P,R32,2*%
%TO.N,Net-(J7-Pin_6)*%
X201930000Y-70866000D03*
%TD*%
%TO.P,R37,1*%
%TO.N,Net-(E1-QE)*%
X104295000Y-151265000D03*
%TO.P,R37,2*%
%TO.N,Net-(J4-Pin_5)*%
X104295000Y-158885000D03*
%TD*%
D12*
%TO.P,IN1,1,~{PL}*%
%TO.N,Net-(IN1-~{PL})*%
X103124000Y-64516000D03*
D11*
%TO.P,IN1,2,CP*%
%TO.N,Net-(IN1-CP)*%
X105664000Y-64516000D03*
%TO.P,IN1,3,D4*%
%TO.N,Net-(IN1-D4)*%
X108204000Y-64516000D03*
%TO.P,IN1,4,D5*%
%TO.N,Net-(IN1-D5)*%
X110744000Y-64516000D03*
%TO.P,IN1,5,D6*%
%TO.N,Net-(IN1-D6)*%
X113284000Y-64516000D03*
%TO.P,IN1,6,D7*%
%TO.N,Net-(IN1-D7)*%
X115824000Y-64516000D03*
%TO.P,IN1,7,~{Q7}*%
%TO.N,unconnected-(IN1-~{Q7}-Pad7)*%
X118364000Y-64516000D03*
%TO.P,IN1,8,GND*%
%TO.N,GND*%
X120904000Y-64516000D03*
%TO.P,IN1,9,Q7*%
%TO.N,Net-(IN1-Q7)*%
X120904000Y-56896000D03*
%TO.P,IN1,10,DS*%
%TO.N,Net-(Cresc1-VCC)*%
X118364000Y-56896000D03*
%TO.P,IN1,11,D0*%
%TO.N,Net-(IN1-D0)*%
X115824000Y-56896000D03*
%TO.P,IN1,12,D1*%
%TO.N,Net-(IN1-D1)*%
X113284000Y-56896000D03*
%TO.P,IN1,13,D2*%
%TO.N,Net-(IN1-D2)*%
X110744000Y-56896000D03*
%TO.P,IN1,14,D3*%
%TO.N,Net-(IN1-D3)*%
X108204000Y-56896000D03*
%TO.P,IN1,15,~{CE}*%
%TO.N,GND*%
X105664000Y-56896000D03*
%TO.P,IN1,16,VCC*%
%TO.N,Net-(Cresc1-VCC)*%
X103124000Y-56896000D03*
%TD*%
%TO.P,R31,1*%
%TO.N,Net-(Cresc2-QG)*%
X194310000Y-75946000D03*
%TO.P,R31,2*%
%TO.N,Net-(J7-Pin_5)*%
X201930000Y-75946000D03*
%TD*%
%TO.P,R46,1*%
%TO.N,Net-(E2-QF)*%
X165980000Y-150865000D03*
%TO.P,R46,2*%
%TO.N,Net-(J5-Pin_6)*%
X165980000Y-158485000D03*
%TD*%
D17*
%TO.P,J1,1,Pin_1*%
%TO.N,+5V*%
X40557500Y-40980000D03*
D14*
%TO.P,J1,2,Pin_2*%
%TO.N,GND*%
X40557500Y-43520000D03*
%TD*%
D11*
%TO.P,R11,1*%
%TO.N,Net-(IN2-D2)*%
X63754000Y-108712000D03*
%TO.P,R11,2*%
%TO.N,Net-(Cresc1-VCC)*%
X71374000Y-108712000D03*
%TD*%
D12*
%TO.P,IN2,1,~{PL}*%
%TO.N,Net-(IN1-~{PL})*%
X133858000Y-64262000D03*
D11*
%TO.P,IN2,2,CP*%
%TO.N,Net-(IN1-CP)*%
X136398000Y-64262000D03*
%TO.P,IN2,3,D4*%
%TO.N,Net-(IN2-D4)*%
X138938000Y-64262000D03*
%TO.P,IN2,4,D5*%
%TO.N,Net-(IN2-D5)*%
X141478000Y-64262000D03*
%TO.P,IN2,5,D6*%
%TO.N,Net-(IN2-D6)*%
X144018000Y-64262000D03*
%TO.P,IN2,6,D7*%
%TO.N,Net-(IN2-D7)*%
X146558000Y-64262000D03*
%TO.P,IN2,7,~{Q7}*%
%TO.N,unconnected-(IN2-~{Q7}-Pad7)*%
X149098000Y-64262000D03*
%TO.P,IN2,8,GND*%
%TO.N,GND*%
X151638000Y-64262000D03*
%TO.P,IN2,9,Q7*%
%TO.N,Net-(IN2-Q7)*%
X151638000Y-56642000D03*
%TO.P,IN2,10,DS*%
%TO.N,Net-(IN1-Q7)*%
X149098000Y-56642000D03*
%TO.P,IN2,11,D0*%
%TO.N,Net-(IN2-D0)*%
X146558000Y-56642000D03*
%TO.P,IN2,12,D1*%
%TO.N,Net-(IN2-D1)*%
X144018000Y-56642000D03*
%TO.P,IN2,13,D2*%
%TO.N,Net-(IN2-D2)*%
X141478000Y-56642000D03*
%TO.P,IN2,14,D3*%
%TO.N,Net-(IN2-D3)*%
X138938000Y-56642000D03*
%TO.P,IN2,15,~{CE}*%
%TO.N,GND*%
X136398000Y-56642000D03*
%TO.P,IN2,16,VCC*%
%TO.N,Net-(Cresc1-VCC)*%
X133858000Y-56642000D03*
%TD*%
%TO.P,R5,1*%
%TO.N,Net-(IN1-D4)*%
X63754000Y-78486000D03*
%TO.P,R5,2*%
%TO.N,Net-(Cresc1-VCC)*%
X71374000Y-78486000D03*
%TD*%
%TO.P,R42,1*%
%TO.N,Net-(E2-QB)*%
X145914000Y-150865000D03*
%TO.P,R42,2*%
%TO.N,Net-(J5-Pin_2)*%
X145914000Y-158485000D03*
%TD*%
%TO.P,R47,1*%
%TO.N,Net-(E2-QG)*%
X171060000Y-150865000D03*
%TO.P,R47,2*%
%TO.N,Net-(J5-Pin_7)*%
X171060000Y-158485000D03*
%TD*%
%TO.P,R33,1*%
%TO.N,Net-(E1-QA)*%
X83975000Y-151265000D03*
%TO.P,R33,2*%
%TO.N,Net-(J4-Pin_1)*%
X83975000Y-158885000D03*
%TD*%
%TO.P,R18,1*%
%TO.N,Net-(Cresc1-QB)*%
X194310000Y-140970000D03*
%TO.P,R18,2*%
%TO.N,Net-(J3-Pin_2)*%
X201930000Y-140970000D03*
%TD*%
%TO.P,R16,1*%
%TO.N,Net-(IN2-D7)*%
X63754000Y-133604000D03*
%TO.P,R16,2*%
%TO.N,Net-(Cresc1-VCC)*%
X71374000Y-133604000D03*
%TD*%
%TO.P,R6,1*%
%TO.N,Net-(IN1-D5)*%
X63754000Y-83566000D03*
%TO.P,R6,2*%
%TO.N,Net-(Cresc1-VCC)*%
X71374000Y-83566000D03*
%TD*%
%TO.P,R7,1*%
%TO.N,Net-(IN1-D6)*%
X63754000Y-88646000D03*
%TO.P,R7,2*%
%TO.N,Net-(Cresc1-VCC)*%
X71374000Y-88646000D03*
%TD*%
%TO.P,R26,1*%
%TO.N,Net-(Cresc2-QB)*%
X194310000Y-101092000D03*
%TO.P,R26,2*%
%TO.N,Net-(J3-Pin_10)*%
X201930000Y-101092000D03*
%TD*%
%TO.P,R30,1*%
%TO.N,Net-(Cresc2-QF)*%
X194310000Y-81026000D03*
%TO.P,R30,2*%
%TO.N,Net-(J7-Pin_4)*%
X201930000Y-81026000D03*
%TD*%
%TO.P,R12,1*%
%TO.N,Net-(IN2-D3)*%
X63754000Y-113538000D03*
%TO.P,R12,2*%
%TO.N,Net-(Cresc1-VCC)*%
X71374000Y-113538000D03*
%TD*%
%TO.P,R41,1*%
%TO.N,Net-(E2-QA)*%
X140580000Y-150865000D03*
%TO.P,R41,2*%
%TO.N,Net-(J5-Pin_1)*%
X140580000Y-158485000D03*
%TD*%
%TO.P,R9,1*%
%TO.N,Net-(IN2-D0)*%
X63754000Y-98552000D03*
%TO.P,R9,2*%
%TO.N,Net-(Cresc1-VCC)*%
X71374000Y-98552000D03*
%TD*%
%TO.P,R13,1*%
%TO.N,Net-(IN2-D4)*%
X63754000Y-118618000D03*
%TO.P,R13,2*%
%TO.N,Net-(Cresc1-VCC)*%
X71374000Y-118618000D03*
%TD*%
D12*
%TO.P,E1,1,QB*%
%TO.N,Net-(E1-QB)*%
X103124000Y-125476000D03*
D11*
%TO.P,E1,2,QC*%
%TO.N,Net-(E1-QC)*%
X105664000Y-125476000D03*
%TO.P,E1,3,QD*%
%TO.N,Net-(E1-QD)*%
X108204000Y-125476000D03*
%TO.P,E1,4,QE*%
%TO.N,Net-(E1-QE)*%
X110744000Y-125476000D03*
%TO.P,E1,5,QF*%
%TO.N,Net-(E1-QF)*%
X113284000Y-125476000D03*
%TO.P,E1,6,QG*%
%TO.N,Net-(E1-QG)*%
X115824000Y-125476000D03*
%TO.P,E1,7,QH*%
%TO.N,Net-(E1-QH)*%
X118364000Y-125476000D03*
%TO.P,E1,8,GND*%
%TO.N,GND*%
X120904000Y-125476000D03*
%TO.P,E1,9,QH'*%
%TO.N,unconnected-(E1-QH'-Pad9)*%
X120904000Y-117856000D03*
%TO.P,E1,10,~{SRCLR}*%
%TO.N,Net-(Cresc1-VCC)*%
X118364000Y-117856000D03*
%TO.P,E1,11,SRCLK*%
%TO.N,Net-(E1-SRCLK)*%
X115824000Y-117856000D03*
%TO.P,E1,12,RCLK*%
%TO.N,Net-(E1-RCLK)*%
X113284000Y-117856000D03*
%TO.P,E1,13,~{OE}*%
%TO.N,GND*%
X110744000Y-117856000D03*
%TO.P,E1,14,SER*%
%TO.N,Net-(E1-SER)*%
X108204000Y-117856000D03*
%TO.P,E1,15,QA*%
%TO.N,Net-(E1-QA)*%
X105664000Y-117856000D03*
%TO.P,E1,16,VCC*%
%TO.N,Net-(Cresc1-VCC)*%
X103124000Y-117856000D03*
%TD*%
%TO.P,R22,1*%
%TO.N,Net-(Cresc1-QF)*%
X194310000Y-121158000D03*
%TO.P,R22,2*%
%TO.N,Net-(J3-Pin_6)*%
X201930000Y-121158000D03*
%TD*%
%TO.P,R17,1*%
%TO.N,Net-(Cresc1-QA)*%
X194310000Y-146050000D03*
%TO.P,R17,2*%
%TO.N,Net-(J3-Pin_1)*%
X201930000Y-146050000D03*
%TD*%
%TO.P,R14,1*%
%TO.N,Net-(IN2-D5)*%
X63754000Y-123698000D03*
%TO.P,R14,2*%
%TO.N,Net-(Cresc1-VCC)*%
X71374000Y-123698000D03*
%TD*%
%TO.P,R36,1*%
%TO.N,Net-(E1-QD)*%
X99215000Y-151265000D03*
%TO.P,R36,2*%
%TO.N,Net-(J4-Pin_4)*%
X99215000Y-158885000D03*
%TD*%
%TO.P,R38,1*%
%TO.N,Net-(E1-QF)*%
X109375000Y-151265000D03*
%TO.P,R38,2*%
%TO.N,Net-(J4-Pin_6)*%
X109375000Y-158885000D03*
%TD*%
%TO.P,R29,1*%
%TO.N,Net-(Cresc2-QE)*%
X194310000Y-85852000D03*
%TO.P,R29,2*%
%TO.N,Net-(J7-Pin_3)*%
X201930000Y-85852000D03*
%TD*%
%TO.P,R8,1*%
%TO.N,Net-(IN1-D7)*%
X63754000Y-93726000D03*
%TO.P,R8,2*%
%TO.N,Net-(Cresc1-VCC)*%
X71374000Y-93726000D03*
%TD*%
%TO.P,R27,1*%
%TO.N,Net-(Cresc2-QC)*%
X194310000Y-96012000D03*
%TO.P,R27,2*%
%TO.N,Net-(J7-Pin_1)*%
X201930000Y-96012000D03*
%TD*%
%TO.P,R28,1*%
%TO.N,Net-(Cresc2-QD)*%
X194310000Y-90932000D03*
%TO.P,R28,2*%
%TO.N,Net-(J7-Pin_2)*%
X201930000Y-90932000D03*
%TD*%
D17*
%TO.P,J6,1,Pin_1*%
%TO.N,Net-(J6-Pin_1)*%
X38354000Y-150368000D03*
D14*
%TO.P,J6,2,Pin_2*%
%TO.N,Net-(J6-Pin_2)*%
X38354000Y-152908000D03*
%TO.P,J6,3,Pin_3*%
%TO.N,Net-(J6-Pin_3)*%
X38354000Y-155448000D03*
%TO.P,J6,4,Pin_4*%
%TO.N,Net-(Cresc1-VCC)*%
X38354000Y-157988000D03*
%TO.P,J6,5,Pin_5*%
%TO.N,GND*%
X38354000Y-160528000D03*
%TD*%
D12*
%TO.P,E2,1,QB*%
%TO.N,Net-(E2-QB)*%
X133858000Y-125476000D03*
D11*
%TO.P,E2,2,QC*%
%TO.N,Net-(E2-QC)*%
X136398000Y-125476000D03*
%TO.P,E2,3,QD*%
%TO.N,Net-(E2-QD)*%
X138938000Y-125476000D03*
%TO.P,E2,4,QE*%
%TO.N,Net-(E2-QE)*%
X141478000Y-125476000D03*
%TO.P,E2,5,QF*%
%TO.N,Net-(E2-QF)*%
X144018000Y-125476000D03*
%TO.P,E2,6,QG*%
%TO.N,Net-(E2-QG)*%
X146558000Y-125476000D03*
%TO.P,E2,7,QH*%
%TO.N,Net-(E2-QH)*%
X149098000Y-125476000D03*
%TO.P,E2,8,GND*%
%TO.N,GND*%
X151638000Y-125476000D03*
%TO.P,E2,9,QH'*%
%TO.N,unconnected-(E2-QH'-Pad9)*%
X151638000Y-117856000D03*
%TO.P,E2,10,~{SRCLR}*%
%TO.N,Net-(Cresc1-VCC)*%
X149098000Y-117856000D03*
%TO.P,E2,11,SRCLK*%
%TO.N,Net-(E2-SRCLK)*%
X146558000Y-117856000D03*
%TO.P,E2,12,RCLK*%
%TO.N,Net-(E2-RCLK)*%
X144018000Y-117856000D03*
%TO.P,E2,13,~{OE}*%
%TO.N,GND*%
X141478000Y-117856000D03*
%TO.P,E2,14,SER*%
%TO.N,Net-(E2-SER)*%
X138938000Y-117856000D03*
%TO.P,E2,15,QA*%
%TO.N,Net-(E2-QA)*%
X136398000Y-117856000D03*
%TO.P,E2,16,VCC*%
%TO.N,Net-(Cresc1-VCC)*%
X133858000Y-117856000D03*
%TD*%
%TO.P,R45,1*%
%TO.N,Net-(E2-QE)*%
X160900000Y-150865000D03*
%TO.P,R45,2*%
%TO.N,Net-(J5-Pin_5)*%
X160900000Y-158485000D03*
%TD*%
D17*
%TO.P,J2,1,Pin_1*%
%TO.N,Net-(IN2-D2)*%
X39875000Y-94600000D03*
D14*
%TO.P,J2,2,Pin_2*%
%TO.N,Net-(IN2-D3)*%
X39875000Y-97140000D03*
%TO.P,J2,3,Pin_3*%
%TO.N,Net-(IN2-D4)*%
X39875000Y-99680000D03*
%TO.P,J2,4,Pin_4*%
%TO.N,Net-(IN2-D5)*%
X39875000Y-102220000D03*
%TO.P,J2,5,Pin_5*%
%TO.N,Net-(IN2-D6)*%
X39875000Y-104760000D03*
%TO.P,J2,6,Pin_6*%
%TO.N,Net-(IN2-D7)*%
X39875000Y-107300000D03*
%TD*%
D11*
%TO.P,R2,1*%
%TO.N,Net-(IN1-D1)*%
X63754000Y-63344000D03*
%TO.P,R2,2*%
%TO.N,Net-(Cresc1-VCC)*%
X71374000Y-63344000D03*
%TD*%
%TO.P,R43,1*%
%TO.N,Net-(E2-QC)*%
X150740000Y-150865000D03*
%TO.P,R43,2*%
%TO.N,Net-(J5-Pin_3)*%
X150740000Y-158485000D03*
%TD*%
%TO.P,R20,1*%
%TO.N,Net-(Cresc1-QD)*%
X194310000Y-131064000D03*
%TO.P,R20,2*%
%TO.N,Net-(J3-Pin_4)*%
X201930000Y-131064000D03*
%TD*%
D17*
%TO.P,J9,1,Pin_1*%
%TO.N,Net-(IN1-D0)*%
X39900000Y-67145000D03*
D14*
%TO.P,J9,2,Pin_2*%
%TO.N,Net-(IN1-D1)*%
X39900000Y-69685000D03*
%TO.P,J9,3,Pin_3*%
%TO.N,Net-(IN1-D2)*%
X39900000Y-72225000D03*
%TO.P,J9,4,Pin_4*%
%TO.N,Net-(IN1-D3)*%
X39900000Y-74765000D03*
%TO.P,J9,5,Pin_5*%
%TO.N,Net-(IN1-D4)*%
X39900000Y-77305000D03*
%TO.P,J9,6,Pin_6*%
%TO.N,Net-(IN1-D5)*%
X39900000Y-79845000D03*
%TO.P,J9,7,Pin_7*%
%TO.N,Net-(IN1-D6)*%
X39900000Y-82385000D03*
%TO.P,J9,8,Pin_8*%
%TO.N,Net-(IN1-D7)*%
X39900000Y-84925000D03*
%TO.P,J9,9,Pin_9*%
%TO.N,Net-(IN2-D0)*%
X39900000Y-87465000D03*
%TO.P,J9,10,Pin_10*%
%TO.N,Net-(IN2-D1)*%
X39900000Y-90005000D03*
%TD*%
D11*
%TO.P,R4,1*%
%TO.N,Net-(IN1-D3)*%
X63754000Y-73194000D03*
%TO.P,R4,2*%
%TO.N,Net-(Cresc1-VCC)*%
X71374000Y-73194000D03*
%TD*%
D18*
%TO.N,Net-(Cresc1-SER)*%
X108204000Y-84836000D03*
X108204000Y-86198000D03*
%TO.N,Net-(Cresc1-SRCLK)*%
X146812000Y-70612000D03*
X142748000Y-89570000D03*
%TO.N,Net-(Cresc1-RCLK)*%
X113284000Y-82042000D03*
X113284000Y-86198000D03*
%TO.N,Net-(Cresc1-QH')*%
X134874000Y-85852000D03*
X132842000Y-85852000D03*
%TO.N,GND*%
X126492000Y-118872000D03*
X126492000Y-106172000D03*
%TO.N,Net-(IN1-CP)*%
X136398000Y-69342000D03*
X183388000Y-38862000D03*
X105664000Y-69342000D03*
X136398000Y-67726000D03*
X180086000Y-38862000D03*
X105664000Y-67310000D03*
%TO.N,Net-(IN2-Q7)*%
X180075000Y-36050000D03*
X177425000Y-36075000D03*
%TO.N,Net-(E2-RCLK)*%
X144018000Y-118872000D03*
X144018000Y-120650000D03*
%TO.N,Net-(E1-SER)*%
X195326000Y-44704000D03*
%TO.N,Net-(IN1-Q7)*%
X120904000Y-51562000D03*
X120904000Y-54102000D03*
%TD*%
D19*
%TO.N,Net-(Cresc1-SER)*%
X108204000Y-86198000D02*
X108204000Y-84836000D01*
%TO.N,Net-(Cresc1-VCC)*%
X39878000Y-154873000D02*
X39878000Y-156464000D01*
X71374000Y-133604000D02*
X71374000Y-135890000D01*
X71374000Y-135890000D02*
X70866000Y-136398000D01*
X47177000Y-147574000D02*
X39878000Y-154873000D01*
X49022000Y-136398000D02*
X47177000Y-138243000D01*
X70866000Y-136398000D02*
X49022000Y-136398000D01*
X47177000Y-138243000D02*
X47177000Y-147574000D01*
X39878000Y-156464000D02*
X38354000Y-157988000D01*
%TO.N,Net-(Cresc1-SRCLK)*%
X145126000Y-89570000D02*
X146558000Y-88138000D01*
X146812000Y-70612000D02*
X146558000Y-70866000D01*
X146558000Y-70866000D02*
X146558000Y-88138000D01*
X142748000Y-89570000D02*
X145126000Y-89570000D01*
%TO.N,Net-(Cresc1-RCLK)*%
X113284000Y-86198000D02*
X113284000Y-82042000D01*
%TO.N,Net-(Cresc1-QD)*%
X111200050Y-97108000D02*
X111238975Y-97069075D01*
X192407000Y-129161000D02*
X194310000Y-131064000D01*
X176442100Y-102656000D02*
X190704450Y-102656000D01*
X190704450Y-102656000D02*
X190704450Y-114375450D01*
X112375000Y-97790000D02*
X112375000Y-102333200D01*
X175934100Y-103164000D02*
X176442100Y-102656000D01*
X109305000Y-97108000D02*
X111200050Y-97108000D01*
X111959900Y-97790000D02*
X112375000Y-97790000D01*
X190704450Y-114375450D02*
X192407000Y-116078000D01*
X192407000Y-116078000D02*
X192407000Y-129161000D01*
X108204000Y-96007000D02*
X109305000Y-97108000D01*
X112375000Y-102333200D02*
X113205800Y-103164000D01*
X111238975Y-97069075D02*
X111959900Y-97790000D01*
X113205800Y-103164000D02*
X175934100Y-103164000D01*
%TO.N,Net-(Cresc1-QC)*%
X194310000Y-135890000D02*
X192006000Y-133586000D01*
X110998000Y-97536000D02*
X107193000Y-97536000D01*
X107193000Y-97536000D02*
X105664000Y-96007000D01*
X111653000Y-98191000D02*
X110998000Y-97536000D01*
X190179000Y-103057000D02*
X176608200Y-103057000D01*
X192006000Y-133586000D02*
X192006000Y-116314000D01*
X192006000Y-116314000D02*
X190246000Y-114554000D01*
X111974000Y-98191000D02*
X111653000Y-98191000D01*
X190246000Y-103124000D02*
X190179000Y-103057000D01*
X111974000Y-102499300D02*
X111974000Y-98191000D01*
X190246000Y-114554000D02*
X190246000Y-103124000D01*
X176100200Y-103565000D02*
X113039700Y-103565000D01*
X113039700Y-103565000D02*
X111974000Y-102499300D01*
X176608200Y-103057000D02*
X176100200Y-103565000D01*
%TO.N,Net-(Cresc1-QH')*%
X132842000Y-85852000D02*
X134874000Y-85852000D01*
%TO.N,Net-(Cresc1-QE)*%
X112776000Y-102167100D02*
X113371900Y-102763000D01*
X175768000Y-102763000D02*
X176276000Y-102255000D01*
X110744000Y-96007000D02*
X112019000Y-97282000D01*
X112776000Y-97282000D02*
X112776000Y-102167100D01*
X192808000Y-115824000D02*
X192808000Y-124482000D01*
X191105450Y-102264550D02*
X191105450Y-114121450D01*
X192808000Y-124482000D02*
X194310000Y-125984000D01*
X191105450Y-114121450D02*
X192808000Y-115824000D01*
X112019000Y-97282000D02*
X112776000Y-97282000D01*
X191095900Y-102255000D02*
X191105450Y-102264550D01*
X113371900Y-102763000D02*
X175768000Y-102763000D01*
X176276000Y-102255000D02*
X191095900Y-102255000D01*
%TO.N,Net-(Cresc1-QF)*%
X191516000Y-113851100D02*
X193247925Y-115583025D01*
X176022000Y-101854000D02*
X191262000Y-101854000D01*
X113284000Y-96007000D02*
X113284000Y-102108000D01*
X113538000Y-102362000D02*
X175514000Y-102362000D01*
X191516000Y-102108000D02*
X191516000Y-113851100D01*
X191262000Y-101854000D02*
X191516000Y-102108000D01*
X175514000Y-102362000D02*
X176022000Y-101854000D01*
X193209000Y-120057000D02*
X194310000Y-121158000D01*
X113284000Y-102108000D02*
X113538000Y-102362000D01*
X193247925Y-115583025D02*
X193209000Y-115621950D01*
X193209000Y-115621950D02*
X193209000Y-120057000D01*
%TO.N,Net-(Cresc1-QG)*%
X175945300Y-101346000D02*
X175544300Y-101747000D01*
X192024000Y-101346000D02*
X175945300Y-101346000D01*
X194310000Y-116078000D02*
X192024000Y-113792000D01*
X115824000Y-101092000D02*
X115824000Y-96007000D01*
X175544300Y-101747000D02*
X116479000Y-101747000D01*
X116479000Y-101747000D02*
X115824000Y-101092000D01*
X192024000Y-113792000D02*
X192024000Y-101346000D01*
%TO.N,Net-(Cresc1-QB)*%
X189845000Y-103458000D02*
X189845000Y-114720100D01*
X111486900Y-98592000D02*
X111573000Y-98592000D01*
X191605000Y-138265000D02*
X194310000Y-140970000D01*
X111573000Y-102665400D02*
X112873600Y-103966000D01*
X110831900Y-97937000D02*
X111486900Y-98592000D01*
X189845000Y-114720100D02*
X191605000Y-116480100D01*
X111573000Y-98592000D02*
X111573000Y-102665400D01*
X112873600Y-103966000D02*
X176276000Y-103966000D01*
X105054000Y-97937000D02*
X110831900Y-97937000D01*
X103124000Y-96007000D02*
X105054000Y-97937000D01*
X176784000Y-103458000D02*
X189845000Y-103458000D01*
X191605000Y-116480100D02*
X191605000Y-138265000D01*
X176276000Y-103966000D02*
X176784000Y-103458000D01*
%TO.N,Net-(Cresc1-QA)*%
X176950100Y-103859000D02*
X176442100Y-104367000D01*
X102023000Y-92028000D02*
X105664000Y-88387000D01*
X111172000Y-102831500D02*
X111172000Y-98844200D01*
X110665800Y-98338000D02*
X103568840Y-98338000D01*
X194310000Y-146050000D02*
X191204000Y-142944000D01*
X112707500Y-104367000D02*
X111172000Y-102831500D01*
X189417000Y-103859000D02*
X176950100Y-103859000D01*
X191204000Y-116646200D02*
X189444000Y-114886200D01*
X102023000Y-96792160D02*
X102023000Y-92028000D01*
X103568840Y-98338000D02*
X102023000Y-96792160D01*
X189444000Y-103886000D02*
X189417000Y-103859000D01*
X189444000Y-114886200D02*
X189444000Y-103886000D01*
X176442100Y-104367000D02*
X112707500Y-104367000D01*
X191204000Y-142944000D02*
X191204000Y-116646200D01*
X111172000Y-98844200D02*
X110665800Y-98338000D01*
%TO.N,GND*%
X111845000Y-118957000D02*
X114385000Y-118957000D01*
X158525000Y-61925000D02*
X156188000Y-64262000D01*
X153925000Y-97389000D02*
X152550000Y-97389000D01*
X154561000Y-65889000D02*
X154561000Y-96753000D01*
X152225000Y-96345000D02*
X151638000Y-95758000D01*
X154561000Y-96753000D02*
X153925000Y-97389000D01*
X126492000Y-118872000D02*
X126492000Y-106172000D01*
X152225000Y-97075000D02*
X152225000Y-96345000D01*
X202235000Y-61925000D02*
X158525000Y-61925000D01*
X156188000Y-64262000D02*
X154561000Y-65889000D01*
X152225000Y-97075000D02*
X152236000Y-97075000D01*
X206248000Y-57912000D02*
X202235000Y-61925000D01*
X152236000Y-97075000D02*
X152550000Y-97389000D01*
X110744000Y-117856000D02*
X111845000Y-118957000D01*
X114385000Y-118957000D02*
X120904000Y-125476000D01*
X156188000Y-64262000D02*
X151638000Y-64262000D01*
%TO.N,Net-(Cresc1-QH)*%
X192786000Y-100838000D02*
X175886200Y-100838000D01*
X194310000Y-110998000D02*
X192786000Y-109474000D01*
X175886200Y-100838000D02*
X175378200Y-101346000D01*
X192786000Y-109474000D02*
X192786000Y-100838000D01*
X118364000Y-101346000D02*
X118364000Y-96007000D01*
X175378200Y-101346000D02*
X118364000Y-101346000D01*
%TO.N,Net-(Cresc2-QH)*%
X151130000Y-97790000D02*
X149098000Y-95758000D01*
X194310000Y-70866000D02*
X172720000Y-92456000D01*
X172720000Y-92456000D02*
X172720000Y-97790000D01*
X172720000Y-97790000D02*
X151130000Y-97790000D01*
%TO.N,Net-(Cresc2-QB)*%
X142250450Y-100517000D02*
X175073000Y-100517000D01*
X135529000Y-97429000D02*
X139162450Y-97429000D01*
X194310000Y-100076000D02*
X194310000Y-101092000D01*
X139162450Y-97429000D02*
X142250450Y-100517000D01*
X194056000Y-99822000D02*
X194310000Y-100076000D01*
X175073000Y-100517000D02*
X175768000Y-99822000D01*
X133858000Y-95758000D02*
X135529000Y-97429000D01*
X175768000Y-99822000D02*
X194056000Y-99822000D01*
%TO.N,Net-(Cresc2-QA)*%
X175827100Y-100330000D02*
X175239100Y-100918000D01*
X132757000Y-91779000D02*
X136398000Y-88138000D01*
X193209000Y-100415000D02*
X193294000Y-100330000D01*
X194310000Y-105918000D02*
X193209000Y-104817000D01*
X193209000Y-104817000D02*
X193209000Y-100415000D01*
X175239100Y-100918000D02*
X142084350Y-100918000D01*
X142084350Y-100918000D02*
X138996350Y-97830000D01*
X134043840Y-97830000D02*
X132757000Y-96543160D01*
X132757000Y-96543160D02*
X132757000Y-91779000D01*
X193294000Y-100330000D02*
X175827100Y-100330000D01*
X138996350Y-97830000D02*
X134043840Y-97830000D01*
%TO.N,Net-(Cresc2-QG)*%
X149098000Y-98298000D02*
X146558000Y-95758000D01*
X173228000Y-98298000D02*
X149098000Y-98298000D01*
X189992000Y-75946000D02*
X173228000Y-92710000D01*
X194310000Y-75946000D02*
X189992000Y-75946000D01*
X173228000Y-92710000D02*
X173228000Y-98298000D01*
%TO.N,Net-(Cresc2-QC)*%
X175260000Y-96012000D02*
X194310000Y-96012000D01*
X136398000Y-95758000D02*
X137668000Y-97028000D01*
X174517100Y-100116000D02*
X175260000Y-99373100D01*
X175260000Y-99373100D02*
X175260000Y-96012000D01*
X142534000Y-100116000D02*
X174517100Y-100116000D01*
X137668000Y-97028000D02*
X139446000Y-97028000D01*
X139446000Y-97028000D02*
X142534000Y-100116000D01*
%TO.N,Net-(Cresc2-QD)*%
X174752000Y-99314000D02*
X174752000Y-93472000D01*
X177292000Y-90932000D02*
X194310000Y-90932000D01*
X142895000Y-99715000D02*
X174351000Y-99715000D01*
X174351000Y-99715000D02*
X174752000Y-99314000D01*
X138938000Y-95758000D02*
X142895000Y-99715000D01*
X174752000Y-93472000D02*
X177292000Y-90932000D01*
%TO.N,Net-(Cresc2-QF)*%
X173589000Y-98699000D02*
X173736000Y-98552000D01*
X173736000Y-98552000D02*
X173736000Y-92769100D01*
X146959000Y-98699000D02*
X173589000Y-98699000D01*
X144018000Y-95758000D02*
X146959000Y-98699000D01*
X185479100Y-81026000D02*
X194310000Y-81026000D01*
X173736000Y-92769100D02*
X185479100Y-81026000D01*
%TO.N,Net-(Cresc2-QE)*%
X194310000Y-85852000D02*
X181610000Y-85852000D01*
X174137000Y-98953000D02*
X174244000Y-99060000D01*
X181610000Y-85852000D02*
X174137000Y-93325000D01*
X173990000Y-99314000D02*
X145034000Y-99314000D01*
X174137000Y-93325000D02*
X174137000Y-98953000D01*
X145034000Y-99314000D02*
X141478000Y-95758000D01*
X174244000Y-99060000D02*
X173990000Y-99314000D01*
%TO.N,Net-(IN1-D0)*%
X64008000Y-36322000D02*
X71882000Y-28448000D01*
X113792000Y-28448000D02*
X115824000Y-30480000D01*
X115824000Y-30480000D02*
X115824000Y-56896000D01*
X64008000Y-58420000D02*
X64008000Y-36322000D01*
X71882000Y-28448000D02*
X113792000Y-28448000D01*
%TO.N,Net-(IN1-CP)*%
X136398000Y-69342000D02*
X136398000Y-67726000D01*
X180086000Y-38862000D02*
X183388000Y-38862000D01*
X105664000Y-67310000D02*
X105664000Y-69342000D01*
%TO.N,Net-(IN1-D7)*%
X74355000Y-74489000D02*
X112141900Y-74489000D01*
X63754000Y-93726000D02*
X65786000Y-91694000D01*
X73914000Y-74930000D02*
X74355000Y-74489000D01*
X115824000Y-70612000D02*
X115824000Y-64516000D01*
X112141900Y-74489000D02*
X115921450Y-70709450D01*
X73914000Y-77503050D02*
X73914000Y-74930000D01*
X68105050Y-83312000D02*
X73914000Y-77503050D01*
X65786000Y-91694000D02*
X65786000Y-83312000D01*
X65786000Y-83312000D02*
X68105050Y-83312000D01*
X115921450Y-70709450D02*
X115824000Y-70612000D01*
%TO.N,Net-(IN1-D5)*%
X71145900Y-75438000D02*
X72308900Y-74275000D01*
X115022000Y-66187000D02*
X112415000Y-66187000D01*
X115022000Y-70474700D02*
X115022000Y-66187000D01*
X74021000Y-73660000D02*
X111836700Y-73660000D01*
X111836700Y-73660000D02*
X115022000Y-70474700D01*
X70273000Y-75438000D02*
X71145900Y-75438000D01*
X70273000Y-77047000D02*
X70273000Y-75438000D01*
X63754000Y-83566000D02*
X70273000Y-77047000D01*
X112415000Y-66187000D02*
X110744000Y-64516000D01*
X73406000Y-74275000D02*
X74021000Y-73660000D01*
X72308900Y-74275000D02*
X73406000Y-74275000D01*
%TO.N,Net-(IN1-D6)*%
X73600900Y-74676000D02*
X74188900Y-74088000D01*
X63754000Y-88646000D02*
X64855000Y-87545000D01*
X115423000Y-70640800D02*
X115423000Y-65786000D01*
X74188900Y-74088000D02*
X111975800Y-74088000D01*
X111975800Y-74088000D02*
X115423000Y-70640800D01*
X64855000Y-83032100D02*
X72475000Y-75412100D01*
X72475000Y-74676000D02*
X73600900Y-74676000D01*
X115423000Y-65786000D02*
X114554000Y-65786000D01*
X114554000Y-65786000D02*
X113284000Y-64516000D01*
X72475000Y-75412100D02*
X72475000Y-74676000D01*
X64855000Y-87545000D02*
X64855000Y-83032100D01*
%TO.N,Net-(IN1-D2)*%
X63754000Y-68594000D02*
X64855000Y-67493000D01*
X64855000Y-67493000D02*
X64855000Y-62887950D01*
X64855000Y-62887950D02*
X72136000Y-55606950D01*
X72136000Y-30480000D02*
X108966000Y-30480000D01*
X72136000Y-55606950D02*
X72136000Y-30480000D01*
X108966000Y-30480000D02*
X110744000Y-32258000D01*
X110744000Y-32258000D02*
X110744000Y-56896000D01*
%TO.N,Net-(IN1-D3)*%
X65278000Y-71670000D02*
X65278000Y-63032050D01*
X108204000Y-32512000D02*
X108204000Y-56896000D01*
X65278000Y-63032050D02*
X72644000Y-55666050D01*
X106934000Y-31242000D02*
X108204000Y-32512000D01*
X63754000Y-73194000D02*
X65278000Y-71670000D01*
X72644000Y-55666050D02*
X72644000Y-31242000D01*
X72644000Y-31242000D02*
X106934000Y-31242000D01*
%TO.N,Net-(IN1-D4)*%
X111200050Y-65617000D02*
X109305000Y-65617000D01*
X73854900Y-73259000D02*
X111670600Y-73259000D01*
X73810950Y-73302950D02*
X73854900Y-73259000D01*
X63754000Y-78486000D02*
X70612000Y-71628000D01*
X70612000Y-71628000D02*
X72136000Y-71628000D01*
X109305000Y-65617000D02*
X108204000Y-64516000D01*
X112248900Y-66588000D02*
X111238975Y-65578075D01*
X114621000Y-70308600D02*
X114621000Y-66588000D01*
X72136000Y-71628000D02*
X73810950Y-73302950D01*
X111238975Y-65578075D02*
X111200050Y-65617000D01*
X114621000Y-66588000D02*
X112248900Y-66588000D01*
X111670600Y-73259000D02*
X114621000Y-70308600D01*
%TO.N,Net-(IN1-D1)*%
X63754000Y-63344000D02*
X65109000Y-61989000D01*
X64770000Y-36830000D02*
X72136000Y-29464000D01*
X65109000Y-37169000D02*
X64770000Y-36830000D01*
X72136000Y-29464000D02*
X72136000Y-29210000D01*
X72136000Y-29210000D02*
X112014000Y-29210000D01*
X65109000Y-61989000D02*
X65109000Y-37169000D01*
X113284000Y-30480000D02*
X113284000Y-56896000D01*
X112014000Y-29210000D02*
X113284000Y-30480000D01*
%TO.N,Net-(IN2-D0)*%
X112731550Y-74583450D02*
X112731550Y-74466450D01*
X75184000Y-74930000D02*
X75224000Y-74890000D01*
X112731550Y-74466450D02*
X125730000Y-61468000D01*
X75184000Y-87122000D02*
X75184000Y-74930000D01*
X125730000Y-61468000D02*
X125730000Y-39858900D01*
X63754000Y-98552000D02*
X75184000Y-87122000D01*
X146558000Y-40386000D02*
X146558000Y-56642000D01*
X112425000Y-74890000D02*
X112731550Y-74583450D01*
X125730000Y-39858900D02*
X125964900Y-39624000D01*
X75224000Y-74890000D02*
X112425000Y-74890000D01*
X145796000Y-39624000D02*
X146558000Y-40386000D01*
X125964900Y-39624000D02*
X145796000Y-39624000D01*
%TO.N,Net-(IN2-D3)*%
X77109000Y-76307000D02*
X77216000Y-76200000D01*
X128016000Y-41041000D02*
X138577000Y-41041000D01*
X138577000Y-41041000D02*
X138938000Y-41402000D01*
X77109000Y-100183000D02*
X77109000Y-76307000D01*
X138938000Y-41402000D02*
X138938000Y-56642000D01*
X113538000Y-76200000D02*
X127254000Y-62484000D01*
X77216000Y-76200000D02*
X113538000Y-76200000D01*
X127254000Y-62484000D02*
X127254000Y-41803000D01*
X127254000Y-41803000D02*
X128016000Y-41041000D01*
X63754000Y-113538000D02*
X77109000Y-100183000D01*
%TO.N,Net-(IN2-D6)*%
X78633000Y-77831000D02*
X78740000Y-77724000D01*
X63754000Y-128524000D02*
X72876000Y-119402000D01*
X125730000Y-66294000D02*
X141986000Y-66294000D01*
X72876000Y-110630200D02*
X78633000Y-104873200D01*
X114300000Y-77724000D02*
X125730000Y-66294000D01*
X78740000Y-77724000D02*
X114300000Y-77724000D01*
X141986000Y-66294000D02*
X144018000Y-64262000D01*
X78633000Y-104873200D02*
X78633000Y-77831000D01*
X72876000Y-119402000D02*
X72876000Y-110630200D01*
%TO.N,Net-(IN2-D1)*%
X75946000Y-85852000D02*
X75692000Y-85598000D01*
X63754000Y-103632000D02*
X75946000Y-91440000D01*
X126746000Y-40025000D02*
X143657000Y-40025000D01*
X75946000Y-91440000D02*
X75946000Y-85852000D01*
X126131000Y-40640000D02*
X126746000Y-40025000D01*
X112795100Y-75291000D02*
X113132550Y-74953550D01*
X143657000Y-40025000D02*
X144018000Y-40386000D01*
X75839000Y-75291000D02*
X112795100Y-75291000D01*
X126131000Y-61634100D02*
X126131000Y-40640000D01*
X75692000Y-75438000D02*
X75839000Y-75291000D01*
X75692000Y-85598000D02*
X75692000Y-75438000D01*
X144018000Y-40386000D02*
X144018000Y-56642000D01*
X113132550Y-74953550D02*
X113132550Y-74632550D01*
X113132550Y-74632550D02*
X126131000Y-61634100D01*
%TO.N,Net-(IN2-D7)*%
X73406000Y-110744000D02*
X79248000Y-104902000D01*
X64855000Y-132503000D02*
X64855000Y-127990100D01*
X63754000Y-133604000D02*
X64855000Y-132503000D01*
X79248000Y-78232000D02*
X114554000Y-78232000D01*
X79248000Y-104902000D02*
X79248000Y-78232000D01*
X144018000Y-66802000D02*
X146558000Y-64262000D01*
X125984000Y-66802000D02*
X144018000Y-66802000D01*
X64855000Y-127990100D02*
X73406000Y-119439100D01*
X73406000Y-119439100D02*
X73406000Y-110744000D01*
X114554000Y-78232000D02*
X125984000Y-66802000D01*
%TO.N,Net-(IN2-D5)*%
X114105100Y-77216000D02*
X125505550Y-65815550D01*
X63754000Y-123698000D02*
X72475000Y-114977000D01*
X125505550Y-65815550D02*
X139924450Y-65815550D01*
X139924450Y-65815550D02*
X141478000Y-64262000D01*
X72475000Y-110464100D02*
X78232000Y-104707100D01*
X78232000Y-104707100D02*
X78232000Y-77216000D01*
X78232000Y-77216000D02*
X114105100Y-77216000D01*
X72475000Y-114977000D02*
X72475000Y-110464100D01*
%TO.N,Net-(IN2-D2)*%
X63754000Y-108712000D02*
X76708000Y-95758000D01*
X127087900Y-40640000D02*
X141224000Y-40640000D01*
X126746000Y-40981900D02*
X127087900Y-40640000D01*
X141224000Y-40640000D02*
X141478000Y-40894000D01*
X141478000Y-40894000D02*
X141478000Y-56642000D01*
X113284000Y-75692000D02*
X126746000Y-62230000D01*
X76708000Y-75692000D02*
X113284000Y-75692000D01*
X76708000Y-95758000D02*
X76708000Y-75692000D01*
X126746000Y-62230000D02*
X126746000Y-40981900D01*
%TO.N,Net-(IN2-Q7)*%
X184489000Y-41914000D02*
X184425000Y-41850000D01*
X183750000Y-36050000D02*
X180075000Y-36050000D01*
X146959000Y-39866000D02*
X146959000Y-54600000D01*
X151638000Y-55338000D02*
X151638000Y-56642000D01*
X184425000Y-41850000D02*
X184425000Y-36725000D01*
X150900000Y-54600000D02*
X151638000Y-55338000D01*
X180848000Y-57912000D02*
X184489000Y-54271000D01*
X146959000Y-54600000D02*
X150900000Y-54600000D01*
X184425000Y-36725000D02*
X183750000Y-36050000D01*
X150750000Y-36075000D02*
X146959000Y-39866000D01*
X184489000Y-54271000D02*
X184489000Y-41914000D01*
X177425000Y-36075000D02*
X150750000Y-36075000D01*
%TO.N,Net-(IN2-D4)*%
X77724000Y-76962000D02*
X77978000Y-76708000D01*
X63754000Y-118618000D02*
X77724000Y-104648000D01*
X77724000Y-104648000D02*
X77724000Y-76962000D01*
X137837000Y-65363000D02*
X138938000Y-64262000D01*
X114046000Y-76708000D02*
X125476000Y-65278000D01*
X125476000Y-65278000D02*
X125561000Y-65363000D01*
X125561000Y-65363000D02*
X137837000Y-65363000D01*
X77978000Y-76708000D02*
X114046000Y-76708000D01*
%TO.N,Net-(J6-Pin_3)*%
X39985000Y-153817000D02*
X40279000Y-153817000D01*
X178737800Y-61508000D02*
X192492000Y-61508000D01*
X46776000Y-28099000D02*
X47150000Y-27725000D01*
X40279000Y-153817000D02*
X46776000Y-147320000D01*
X38354000Y-155448000D02*
X39985000Y-153817000D01*
X175493900Y-27725000D02*
X178268000Y-30499100D01*
X178268000Y-61038200D02*
X178737800Y-61508000D01*
X46776000Y-147320000D02*
X46776000Y-28099000D01*
X192492000Y-61508000D02*
X196088000Y-57912000D01*
X47150000Y-27725000D02*
X175493900Y-27725000D01*
X178268000Y-30499100D02*
X178268000Y-61038200D01*
%TO.N,Net-(J6-Pin_1)*%
X188214000Y-60706000D02*
X191008000Y-57912000D01*
X38354000Y-150368000D02*
X42418000Y-150368000D01*
X45974000Y-27686000D02*
X46737000Y-26923000D01*
X46737000Y-26923000D02*
X175826100Y-26923000D01*
X45974000Y-146812000D02*
X45974000Y-27686000D01*
X179070000Y-30250000D02*
X179070000Y-60706000D01*
X179070000Y-30166900D02*
X179070000Y-30250000D01*
X175826100Y-26923000D02*
X179070000Y-30166900D01*
X42418000Y-150368000D02*
X45974000Y-146812000D01*
X179070000Y-60706000D02*
X188214000Y-60706000D01*
%TO.N,Net-(J6-Pin_2)*%
X38354000Y-152908000D02*
X40445100Y-152908000D01*
X46375000Y-27852100D02*
X46903100Y-27324000D01*
X178669000Y-60872100D02*
X178903900Y-61107000D01*
X175660000Y-27324000D02*
X178669000Y-30333000D01*
X40445100Y-152908000D02*
X46375000Y-146978100D01*
X46903100Y-27324000D02*
X175660000Y-27324000D01*
X178669000Y-30333000D02*
X178669000Y-60872100D01*
X190353000Y-61107000D02*
X193548000Y-57912000D01*
X178903900Y-61107000D02*
X190353000Y-61107000D01*
X46375000Y-146978100D02*
X46375000Y-27852100D01*
%TO.N,Net-(E1-QC)*%
X84181000Y-142211200D02*
X84181000Y-141819900D01*
X92925000Y-151265000D02*
X92122400Y-150462400D01*
X98385900Y-127615000D02*
X103525000Y-127615000D01*
X84181000Y-141819900D02*
X98385900Y-127615000D01*
X92122400Y-150462400D02*
X92122400Y-150152600D01*
X92122400Y-150152600D02*
X84181000Y-142211200D01*
X92925000Y-151265000D02*
X94135000Y-151265000D01*
X103525000Y-127615000D02*
X105664000Y-125476000D01*
%TO.N,Net-(E1-QG)*%
X93194100Y-148955900D02*
X112145900Y-148955900D01*
X112145900Y-148955900D02*
X114455000Y-151265000D01*
X86253750Y-142015550D02*
X93194100Y-148955900D01*
X111252000Y-130048000D02*
X98221300Y-130048000D01*
X115824000Y-125476000D02*
X111252000Y-130048000D01*
X98221300Y-130048000D02*
X86253750Y-142015550D01*
%TO.N,Net-(E1-QH)*%
X113391000Y-130449000D02*
X98387400Y-130449000D01*
X98387400Y-130449000D02*
X86820850Y-142015550D01*
X86820850Y-142015550D02*
X93360200Y-148554900D01*
X116824900Y-148554900D02*
X119535000Y-151265000D01*
X118364000Y-125476000D02*
X113391000Y-130449000D01*
X93360200Y-148554900D02*
X116824900Y-148554900D01*
%TO.N,Net-(E1-QD)*%
X84582000Y-142045100D02*
X84582000Y-141986000D01*
X99215000Y-151265000D02*
X98114000Y-150164000D01*
X92700900Y-150164000D02*
X84582000Y-142045100D01*
X98114000Y-150164000D02*
X92700900Y-150164000D01*
X98552000Y-128016000D02*
X84582000Y-141986000D01*
X105664000Y-128016000D02*
X98552000Y-128016000D01*
X108204000Y-125476000D02*
X105664000Y-128016000D01*
%TO.N,Net-(E1-QB)*%
X98219800Y-127214000D02*
X83780000Y-141653800D01*
X89055000Y-147680000D02*
X89055000Y-151265000D01*
X103124000Y-125476000D02*
X101386000Y-127214000D01*
X101386000Y-127214000D02*
X98219800Y-127214000D01*
X83780000Y-142405000D02*
X89055000Y-147680000D01*
X83780000Y-141653800D02*
X83780000Y-142405000D01*
%TO.N,Net-(E1-QF)*%
X113284000Y-125476000D02*
X109220000Y-129540000D01*
X85686650Y-142015550D02*
X93033100Y-149362000D01*
X98162200Y-129540000D02*
X85686650Y-142015550D01*
X109220000Y-129540000D02*
X98162200Y-129540000D01*
X93033100Y-149362000D02*
X107472000Y-149362000D01*
X107472000Y-149362000D02*
X109375000Y-151265000D01*
%TO.N,Net-(E1-QE)*%
X98357100Y-128778000D02*
X85230050Y-141905050D01*
X85230050Y-142126050D02*
X92867000Y-149763000D01*
X107442000Y-128778000D02*
X98357100Y-128778000D01*
X85230050Y-141905050D02*
X85230050Y-142126050D01*
X102793000Y-149763000D02*
X104295000Y-151265000D01*
X110744000Y-125476000D02*
X107442000Y-128778000D01*
X92867000Y-149763000D02*
X102793000Y-149763000D01*
%TO.N,Net-(E1-QA)*%
X97933350Y-126933350D02*
X101391700Y-123475000D01*
X105664000Y-122950000D02*
X105664000Y-123186000D01*
X101391700Y-123475000D02*
X105375000Y-123475000D01*
X83379000Y-142571100D02*
X83379000Y-141487700D01*
X105664000Y-117856000D02*
X105664000Y-122950000D01*
X87403950Y-146596050D02*
X83379000Y-142571100D01*
X83975000Y-150025000D02*
X87403950Y-146596050D01*
X83975000Y-151265000D02*
X83975000Y-150025000D01*
X105664000Y-123186000D02*
X105375000Y-123475000D01*
X83379000Y-141487700D02*
X97933350Y-126933350D01*
%TO.N,Net-(E2-QA)*%
X140580000Y-140072000D02*
X140580000Y-150865000D01*
X132080000Y-131572000D02*
X140580000Y-140072000D01*
X136398000Y-116078000D02*
X132080000Y-116078000D01*
X132080000Y-116078000D02*
X132080000Y-131572000D01*
X136398000Y-117856000D02*
X136398000Y-116078000D01*
%TO.N,Net-(E2-QD)*%
X141783000Y-139573700D02*
X141783000Y-148832900D01*
X138938000Y-125476000D02*
X137668000Y-126746000D01*
X137668000Y-134620000D02*
X140248000Y-137200000D01*
X153787900Y-148832900D02*
X155820000Y-150865000D01*
X141783000Y-148832900D02*
X153787900Y-148832900D01*
X140248000Y-138038700D02*
X141783000Y-139573700D01*
X140248000Y-137200000D02*
X140248000Y-138038700D01*
X137668000Y-126746000D02*
X137668000Y-134620000D01*
%TO.N,Net-(E2-QB)*%
X142446000Y-150865000D02*
X145914000Y-150865000D01*
X140981000Y-149400000D02*
X142446000Y-150865000D01*
X140981000Y-139905900D02*
X140981000Y-149400000D01*
X139446000Y-138370900D02*
X140981000Y-139905900D01*
X139446000Y-137922000D02*
X139446000Y-138370900D01*
X133858000Y-125476000D02*
X133858000Y-132334000D01*
X133858000Y-132334000D02*
X139446000Y-137922000D01*
%TO.N,Net-(E2-QG)*%
X145004450Y-127029550D02*
X146558000Y-125476000D01*
X170552000Y-150865000D02*
X170298000Y-150611000D01*
X142523550Y-127029550D02*
X145004450Y-127029550D01*
X143100000Y-139189400D02*
X143100000Y-147624000D01*
X141518000Y-137607400D02*
X143100000Y-139189400D01*
X141518000Y-136671100D02*
X141518000Y-137607400D01*
X167819000Y-147624000D02*
X171060000Y-150865000D01*
X142494000Y-135695100D02*
X142494000Y-127059100D01*
X171060000Y-150865000D02*
X170552000Y-150865000D01*
X141518000Y-136671100D02*
X142494000Y-135695100D01*
X142494000Y-127059100D02*
X142523550Y-127029550D01*
X143100000Y-147624000D02*
X167819000Y-147624000D01*
%TO.N,Net-(E2-QH)*%
X141986000Y-137508300D02*
X143501000Y-139023300D01*
X143501000Y-139023300D02*
X143501000Y-147223000D01*
X143002000Y-127508000D02*
X143002000Y-135890000D01*
X141986000Y-136906000D02*
X141986000Y-137508300D01*
X147066000Y-127508000D02*
X143002000Y-127508000D01*
X143002000Y-135890000D02*
X141986000Y-136906000D01*
X172244000Y-147223000D02*
X176140000Y-151119000D01*
X143501000Y-147223000D02*
X172244000Y-147223000D01*
X149098000Y-125476000D02*
X147066000Y-127508000D01*
%TO.N,Net-(E2-QF)*%
X143510000Y-125476000D02*
X141986000Y-127000000D01*
X141117000Y-136505000D02*
X141117000Y-137773500D01*
X163140000Y-148025000D02*
X165980000Y-150865000D01*
X144018000Y-125476000D02*
X143510000Y-125476000D01*
X141117000Y-137773500D02*
X142625000Y-139281500D01*
X142625000Y-148025000D02*
X163140000Y-148025000D01*
X141986000Y-127000000D02*
X141986000Y-135636000D01*
X141986000Y-135636000D02*
X141117000Y-136505000D01*
X142625000Y-139281500D02*
X142625000Y-148025000D01*
%TO.N,Net-(E2-QE)*%
X140716000Y-136144000D02*
X141478000Y-135382000D01*
X142184000Y-148431900D02*
X158466900Y-148431900D01*
X141478000Y-135382000D02*
X141478000Y-125476000D01*
X140675700Y-137899300D02*
X142184000Y-139407600D01*
X140716000Y-136144000D02*
X140716000Y-137859000D01*
X140716000Y-137859000D02*
X140675700Y-137899300D01*
X158466900Y-148431900D02*
X160900000Y-150865000D01*
X142184000Y-139407600D02*
X142184000Y-148431900D01*
%TO.N,Net-(E2-RCLK)*%
X144018000Y-118872000D02*
X144018000Y-120650000D01*
%TO.N,Net-(E2-QC)*%
X147471050Y-150865000D02*
X150740000Y-150865000D01*
X139847000Y-137755900D02*
X139847000Y-138204800D01*
X141382000Y-139739800D02*
X141382000Y-149233900D01*
X136398000Y-134306900D02*
X139847000Y-137755900D01*
X136398000Y-125476000D02*
X136398000Y-134306900D01*
X145839950Y-149233900D02*
X147471050Y-150865000D01*
X141382000Y-149233900D02*
X145839950Y-149233900D01*
X139847000Y-138204800D02*
X141382000Y-139739800D01*
%TO.N,Net-(E1-SER)*%
X195326000Y-44704000D02*
X196088000Y-43942000D01*
X196088000Y-43942000D02*
X196088000Y-42672000D01*
%TO.N,Net-(IN1-Q7)*%
X120904000Y-51816000D02*
X120904000Y-51562000D01*
X120904000Y-54102000D02*
X120904000Y-51816000D01*
%TD*%
M02*
