M48
; DRILL file {KiCad 9.0.3} date 2025-09-10T19:37:48+0200
; FORMAT={-:-/ absolute / metric / decimal}
; #@! TF.CreationDate,2025-09-10T19:37:48+02:00
; #@! TF.GenerationSoftware,Kicad,Pcbnew,9.0.3
; #@! TF.FileFunction,Plated,1,2,PTH
FMAT,2
METRIC
; #@! TA.AperFunction,Plated,PTH,ViaDrill
T1C0.300
; #@! TA.AperFunction,Plated,PTH,ComponentDrill
T2C0.800
; #@! TA.AperFunction,Plated,PTH,ComponentDrill
T3C1.100
; #@! TA.AperFunction,Plated,PTH,ComponentDrill
T4C1.300
%
G90
G05
T1
X105.664Y-67.31
X105.664Y-69.342
X108.204Y-84.836
X108.204Y-86.198
X113.284Y-82.042
X113.284Y-86.198
X120.904Y-51.562
X120.904Y-54.102
X126.492Y-106.172
X126.492Y-118.872
X132.842Y-85.852
X134.874Y-85.852
X136.398Y-67.726
X136.398Y-69.342
X142.748Y-89.57
X144.018Y-118.872
X144.018Y-120.65
X146.812Y-70.612
X177.425Y-36.075
X180.075Y-36.05
X180.086Y-38.862
X183.388Y-38.862
X195.326Y-44.704
T2
X63.754Y-63.344
X63.754Y-68.594
X63.754Y-73.194
X63.754Y-78.486
X63.754Y-83.566
X63.754Y-88.646
X63.754Y-93.726
X63.754Y-98.552
X63.754Y-103.632
X63.754Y-108.712
X63.754Y-113.538
X63.754Y-118.618
X63.754Y-123.698
X63.754Y-128.524
X63.754Y-133.604
X64.008Y-58.42
X71.374Y-63.344
X71.374Y-68.594
X71.374Y-73.194
X71.374Y-78.486
X71.374Y-83.566
X71.374Y-88.646
X71.374Y-93.726
X71.374Y-98.552
X71.374Y-103.632
X71.374Y-108.712
X71.374Y-113.538
X71.374Y-118.618
X71.374Y-123.698
X71.374Y-128.524
X71.374Y-133.604
X71.628Y-58.42
X83.975Y-151.265
X83.975Y-158.885
X89.055Y-151.265
X89.055Y-158.885
X94.135Y-151.265
X94.135Y-158.885
X99.215Y-151.265
X99.215Y-158.885
X103.124Y-56.896
X103.124Y-64.516
X103.124Y-88.387
X103.124Y-96.007
X103.124Y-117.856
X103.124Y-125.476
X104.295Y-151.265
X104.295Y-158.885
X105.664Y-56.896
X105.664Y-64.516
X105.664Y-88.387
X105.664Y-96.007
X105.664Y-117.856
X105.664Y-125.476
X108.204Y-56.896
X108.204Y-64.516
X108.204Y-88.387
X108.204Y-96.007
X108.204Y-117.856
X108.204Y-125.476
X109.375Y-151.265
X109.375Y-158.885
X110.744Y-56.896
X110.744Y-64.516
X110.744Y-88.387
X110.744Y-96.007
X110.744Y-117.856
X110.744Y-125.476
X113.284Y-56.896
X113.284Y-64.516
X113.284Y-88.387
X113.284Y-96.007
X113.284Y-117.856
X113.284Y-125.476
X114.455Y-151.265
X114.455Y-158.885
X115.824Y-56.896
X115.824Y-64.516
X115.824Y-88.387
X115.824Y-96.007
X115.824Y-117.856
X115.824Y-125.476
X118.364Y-56.896
X118.364Y-64.516
X118.364Y-88.387
X118.364Y-96.007
X118.364Y-117.856
X118.364Y-125.476
X119.535Y-151.265
X119.535Y-158.885
X120.904Y-56.896
X120.904Y-64.516
X120.904Y-88.387
X120.904Y-96.007
X120.904Y-117.856
X120.904Y-125.476
X133.858Y-56.642
X133.858Y-64.262
X133.858Y-88.138
X133.858Y-95.758
X133.858Y-117.856
X133.858Y-125.476
X136.398Y-56.642
X136.398Y-64.262
X136.398Y-88.138
X136.398Y-95.758
X136.398Y-117.856
X136.398Y-125.476
X138.938Y-56.642
X138.938Y-64.262
X138.938Y-88.138
X138.938Y-95.758
X138.938Y-117.856
X138.938Y-125.476
X140.58Y-150.865
X140.58Y-158.485
X141.478Y-56.642
X141.478Y-64.262
X141.478Y-88.138
X141.478Y-95.758
X141.478Y-117.856
X141.478Y-125.476
X144.018Y-56.642
X144.018Y-64.262
X144.018Y-88.138
X144.018Y-95.758
X144.018Y-117.856
X144.018Y-125.476
X145.914Y-150.865
X145.914Y-158.485
X146.558Y-56.642
X146.558Y-64.262
X146.558Y-88.138
X146.558Y-95.758
X146.558Y-117.856
X146.558Y-125.476
X149.098Y-56.642
X149.098Y-64.262
X149.098Y-88.138
X149.098Y-95.758
X149.098Y-117.856
X149.098Y-125.476
X150.74Y-150.865
X150.74Y-158.485
X151.638Y-56.642
X151.638Y-64.262
X151.638Y-88.138
X151.638Y-95.758
X151.638Y-117.856
X151.638Y-125.476
X155.82Y-150.865
X155.82Y-158.485
X160.9Y-150.865
X160.9Y-158.485
X165.98Y-150.865
X165.98Y-158.485
X171.06Y-150.865
X171.06Y-158.485
X176.14Y-151.119
X176.14Y-158.739
X194.31Y-70.866
X194.31Y-75.946
X194.31Y-81.026
X194.31Y-85.852
X194.31Y-90.932
X194.31Y-96.012
X194.31Y-101.092
X194.31Y-105.918
X194.31Y-110.998
X194.31Y-116.078
X194.31Y-121.158
X194.31Y-125.984
X194.31Y-131.064
X194.31Y-135.89
X194.31Y-140.97
X194.31Y-146.05
X201.93Y-70.866
X201.93Y-75.946
X201.93Y-81.026
X201.93Y-85.852
X201.93Y-90.932
X201.93Y-96.012
X201.93Y-101.092
X201.93Y-105.918
X201.93Y-110.998
X201.93Y-116.078
X201.93Y-121.158
X201.93Y-125.984
X201.93Y-131.064
X201.93Y-135.89
X201.93Y-140.97
X201.93Y-146.05
T3
X38.354Y-150.368
X38.354Y-152.908
X38.354Y-155.448
X38.354Y-157.988
X38.354Y-160.528
X39.875Y-94.6
X39.875Y-97.14
X39.875Y-99.68
X39.875Y-102.22
X39.875Y-104.76
X39.875Y-107.3
X39.9Y-67.145
X39.9Y-69.685
X39.9Y-72.225
X39.9Y-74.765
X39.9Y-77.305
X39.9Y-79.845
X39.9Y-82.385
X39.9Y-84.925
X39.9Y-87.465
X39.9Y-90.005
X40.557Y-40.98
X40.557Y-43.52
X92.611Y-170.061
X95.151Y-170.061
X97.691Y-170.061
X100.231Y-170.061
X102.771Y-170.061
X105.311Y-170.061
X107.851Y-170.061
X110.391Y-170.061
X112.931Y-170.061
X148.962Y-168.899
X151.502Y-168.899
X154.042Y-168.899
X156.582Y-168.899
X159.122Y-168.899
X161.662Y-168.899
X164.202Y-168.899
X166.742Y-168.899
X169.282Y-168.899
X180.848Y-42.672
X180.848Y-57.912
X183.388Y-42.672
X183.388Y-57.912
X185.928Y-42.672
X185.928Y-57.912
X188.468Y-42.672
X188.468Y-57.912
X191.008Y-42.672
X191.008Y-57.912
X193.548Y-42.672
X193.548Y-57.912
X196.088Y-42.672
X196.088Y-57.912
X198.628Y-42.672
X198.628Y-57.912
X201.168Y-42.672
X201.168Y-57.912
X203.708Y-42.672
X203.708Y-57.912
X206.248Y-42.672
X206.248Y-57.912
X208.788Y-42.672
X208.788Y-57.912
X214.175Y-86.825
X214.175Y-89.365
X214.175Y-91.905
X214.175Y-94.445
X214.175Y-96.985
X214.175Y-99.525
X214.175Y-103.65
X214.175Y-106.19
X214.175Y-108.73
X214.175Y-111.27
X214.175Y-113.81
X214.175Y-116.35
X214.175Y-118.89
X214.175Y-121.43
X214.175Y-123.97
X214.175Y-126.51
T4
X56.642Y-41.148
X79.142Y-41.148
M30
